<?xml version="1.0" encoding="utf-8"?>
<!DOCTYPE svg PUBLIC "-//W3C//DTD SVG 1.0//EN" "http://www.w3.org/TR/2001/REC-SVG-20010904/DTD/svg10.dtd">
<svg version="1.0" xmlns="http://www.w3.org/2000/svg" width="800px" height="800px" viewBox="0 0 800 800" preserveAspectRatio="xMidYMid meet">
 <g fill="#fde6cd">
  <path d="M0 400 l0 -400 400 0 400 0 0 400 0 400 -279.69 0 c-275.23 0 -279.69 0 -279.69 -1.48 0 -0.86 0.55 -2.50 1.25 -3.75 1.33 -2.19 1.25 -2.50 -2.73 -12.19 -5.94 -14.69 -5.86 -15.16 3.28 -28.98 21.72 -32.73 36.33 -65.23 44.77 -99.22 3.28 -13.52 6.33 -30.55 7.03 -40.08 l0.55 -7.19 3.13 -2.50 c5.47 -4.45 5.63 -4.92 12.66 -55.16 1.48 -10.78 3.28 -21.09 3.98 -22.81 1.02 -2.66 2.66 -4.14 9.61 -8.83 21.17 -14.30 33.67 -25.39 47.03 -42.03 12.42 -15.47 22.27 -34.84 27.27 -53.67 0.86 -3.28 0.94 -3.36 4.14 -3.36 l3.36 0 3.20 9.61 c8.13 24.61 20.63 43.98 41.56 64.61 5.47 5.39 14.14 13.13 19.38 17.19 5.16 4.06 10 8.20 10.70 9.22 4.92 6.41 6.72 50.78 3.20 78.28 -4.69 36.56 -16.72 66.41 -36.88 91.41 -7.97 9.84 -31.56 32.03 -34.14 32.03 -0.16 0 -4.69 2.73 -10 6.09 -5.31 3.36 -11.56 6.88 -13.91 7.89 -2.34 1.02 -6.56 2.89 -9.38 4.14 -6.09 2.89 -30.23 11.33 -35.16 12.34 -1.95 0.39 -5.78 1.09 -8.59 1.56 -2.81 0.47 -7.34 1.25 -10.16 1.64 -2.81 0.47 -16.33 1.02 -30.08 1.17 -26.41 0.39 -30 0.78 -32.03 3.91 -1.72 2.66 -1.48 3.83 1.41 6.33 8.44 7.34 50.31 11.02 78.67 6.80 40.86 -6.02 73.83 -18.59 102.34 -38.83 20.55 -14.69 38.28 -32.81 51.88 -53.13 l6.41 -9.53 7.03 -0.23 6.95 -0.23 1.80 6.88 c5 18.83 20.70 51.25 36.41 75.23 2.81 4.30 5.63 8.83 6.33 10.08 1.88 3.75 1.41 8.44 -1.95 18.44 -1.72 5.08 -3.13 9.92 -3.13 10.70 0 0.70 0.86 2.27 1.88 3.36 l1.88 1.95 1.80 -1.48 c1.02 -0.86 3.83 -3.20 6.25 -5.08 8.36 -6.64 18.67 -21.56 18.67 -26.88 0 -1.02 -2.50 -9.14 -5.47 -17.97 -10.86 -31.80 -18.75 -65.55 -18.75 -80.08 0 -4.69 1.02 -5.78 8.67 -9.45 6.56 -3.20 9.61 -2.81 17.89 2.19 13.36 8.05 25.55 12.03 39.45 12.73 21.09 1.09 43.28 -7.89 66.80 -27.19 6.95 -5.70 7.81 -6.17 11.09 -6.17 1.88 0 6.41 0.86 10.08 2.03 10 2.97 12.89 3.44 14.77 2.11 2.97 -2.11 1.95 -4.14 -5.94 -11.80 -8.52 -8.13 -20.47 -16.56 -23.52 -16.56 -1.09 0 -6.33 2.50 -11.64 5.55 -18.05 10.31 -27.58 13.20 -43.28 13.20 -11.88 0 -16.64 -0.94 -24.61 -4.77 -4.92 -2.42 -5.08 -2.58 -5.08 -5.55 0 -2.27 0.78 -4.22 3.13 -7.73 3.59 -5.23 8.59 -15.23 8.59 -17.11 0 -2.50 -3.13 -4.53 -11.41 -7.34 -4.69 -1.64 -10.47 -3.98 -12.81 -5.31 -18.59 -10.39 -33.67 -28.91 -34.84 -42.81 -0.63 -7.11 -0.16 -7.50 9.45 -8.59 27.73 -3.05 45.63 -8.52 66.17 -20 23.98 -13.52 45.63 -35.70 57.27 -58.91 4.53 -8.98 6.95 -17.03 5.94 -19.69 -1.09 -2.89 -3.05 -4.53 -5.47 -4.53 -2.34 0 -4.77 2.34 -14.14 13.52 -3.20 3.83 -8.98 9.92 -12.97 13.59 -8.52 7.81 -21.56 15.86 -25.70 15.86 l-2.58 0 0.08 -7.19 c0.16 -6.64 -0.08 -7.66 -2.34 -12.50 -2.97 -6.33 -7.97 -11.41 -14.14 -14.45 -3.98 -1.95 -5.23 -2.11 -12.27 -2.11 -4.30 0.08 -11.33 0.31 -15.63 0.63 -7.03 0.55 -8.28 0.47 -12.50 -1.09 -3.91 -1.48 -5.70 -2.81 -10.55 -8.05 -16.48 -17.66 -19.30 -19.92 -28.83 -22.73 -2.34 -0.70 -5.86 -1.25 -7.89 -1.25 -22.11 0 -40.70 24.38 -33.98 44.53 5.08 15.47 19.69 24.92 38.36 25 l6.33 0 4.84 5.86 c2.73 3.20 5.55 6.25 6.41 6.64 1.02 0.63 1.48 1.64 1.48 3.67 l0 2.81 -11.09 -0.47 c-38.20 -1.48 -75.47 -18.13 -103.36 -46.33 -13.59 -13.59 -22.89 -27.03 -33.98 -48.83 -7.66 -14.84 -10.39 -17.66 -13.67 -13.98 -1.80 2.03 -5.70 2.03 -7.81 0 l-1.72 -1.56 -3.13 2.27 c-2.58 1.88 -4.30 4.53 -9.53 14.69 -11.09 21.33 -22.89 37.19 -37.89 50.70 -5.78 5.16 -27.73 21.17 -30.16 21.95 -0.63 0.23 -6.09 2.81 -12.11 5.70 -22.19 10.86 -26.72 12.27 -56.25 17.34 -11.80 2.03 -43.67 2.81 -56.88 1.48 -25.08 -2.58 -48.91 -11.25 -70.55 -25.63 -35 -23.28 -60.31 -57.73 -71.02 -96.64 -4.45 -16.48 -5.47 -24.84 -5.39 -47.34 0 -17.34 0.23 -21.25 1.80 -30.08 2.27 -12.66 4.61 -21.95 9.14 -35.55 3.52 -10.47 3.52 -10.47 2.03 -12.50 -2.19 -2.97 -4.30 -2.81 -7.50 0.39 -6.48 6.48 -17.34 33.13 -21.88 53.91 -3.91 17.50 -5.31 38.20 -3.67 53.59 4.61 43.28 25.16 85.86 57.50 119.30 35.70 37.03 76.80 56.88 124.61 60.31 13.44 0.94 14.06 1.25 14.06 6.17 0 8.83 -11.33 21.56 -31.33 35.31 -5.31 3.59 -9.45 7.03 -10 8.20 -1.33 3.05 1.25 7.73 7.42 13.52 6.88 6.48 6.88 8.05 -0.23 15 -5.70 5.47 -12.11 10.86 -13.05 10.86 -0.39 0 -1.56 0.70 -2.73 1.48 -4.53 3.28 -10.39 4.22 -23.83 3.75 -16.88 -0.47 -25 -2.97 -43.44 -13.44 -4.92 -2.81 -9.61 -5.08 -10.39 -5.08 -5.23 0 -25.39 17.97 -29.92 26.72 -1.25 2.42 -1.25 2.50 0.47 3.91 2.34 1.88 3.83 1.80 12.42 -0.94 5 -1.64 8.91 -2.34 12.34 -2.34 4.92 0 5.08 0.08 9.53 3.98 17.03 15 38.20 25.39 56.64 27.97 15.16 2.11 29.22 -0.55 47.11 -8.91 7.19 -3.36 21.17 -11.95 22.89 -14.14 0.63 -0.70 2.50 -1.09 5.55 -1.09 l4.61 0 0 8.05 c0 24.30 -7.34 60.16 -20.08 98.13 -2.97 8.83 -4.14 13.36 -3.75 14.84 0.94 3.75 6.02 10.55 13.59 18.05 4.22 4.06 8.91 8.13 10.47 8.98 1.56 0.86 2.89 1.80 2.89 2.11 0 0.39 0.55 0.63 1.17 0.63 0.63 0 1.17 0.55 1.17 1.17 0 1.02 -13.83 1.17 -119.92 1.17 l-119.92 0 0 -400z m392.97 390.31 c24.30 -6.17 48.52 -16.95 67.19 -30 13.13 -9.14 28.59 -22.66 36.09 -31.64 3.13 -3.83 3.59 -4.77 2.97 -6.09 -0.47 -0.78 -1.25 -1.48 -1.72 -1.48 -0.47 0 -5.31 4.30 -10.70 9.61 -17.73 17.27 -31.48 27.19 -52.03 37.27 -13.98 6.88 -27.11 11.64 -44.53 16.02 -11.41 2.89 -14.45 4.22 -14.45 6.33 0 1.33 2.27 2.58 4.69 2.66 1.09 0 6.72 -1.17 12.50 -2.66z m87.81 -1.72 c17.58 -3.52 40.86 -11.09 43.83 -14.38 2.42 -2.73 -0.39 -5.78 -3.75 -4.06 -4.30 2.19 -23.28 7.50 -36.80 10.39 -8.20 1.72 -16.80 3.59 -19.14 4.06 -5.16 1.09 -6.56 2.81 -4.38 5.23 1.80 2.03 4.30 1.88 20.23 -1.25z m137.27 -58.20 c11.09 -7.03 31.02 -22.50 39.77 -30.94 6.48 -6.33 6.56 -6.41 5.08 -7.97 -0.78 -0.94 -1.80 -1.64 -2.34 -1.64 -0.55 0 -4.45 3.05 -8.67 6.80 -11.25 9.84 -21.25 17.66 -32.27 25.23 -5.31 3.67 -10.78 7.58 -12.11 8.75 -2.34 2.03 -2.42 2.03 -0.94 3.67 0.86 0.94 1.72 1.64 2.03 1.64 0.31 0 4.53 -2.50 9.45 -5.55z m-422.81 1.72 c1.02 -1.80 -0.39 -3.05 -12.03 -11.41 -10.47 -7.58 -20.23 -15.23 -30 -23.75 -4.06 -3.44 -7.58 -6.33 -7.89 -6.33 -0.31 0 -1.17 0.70 -1.95 1.56 -1.25 1.41 -1.25 1.64 -0.16 3.36 2.89 4.45 29.61 25.86 42.58 34.22 6.56 4.14 8.28 4.61 9.45 2.34z m127.11 -0.47 c52.50 -6.88 97.66 -36.09 117.34 -75.78 6.48 -13.05 12.66 -33.20 12.66 -41.48 0 -5.47 -1.88 -2.19 -3.59 6.41 -5.47 27.34 -17.11 47.50 -37.97 65.94 -25.78 22.81 -60.08 36.64 -96.88 39.14 -8.67 0.55 -11.41 1.02 -12.58 2.03 -1.41 1.33 -1.41 1.41 0.63 3.13 2.50 2.19 7.11 2.34 20.39 0.63z m36.25 -57.89 c0.86 -1.02 0.78 -1.48 -0.63 -2.81 -1.33 -1.41 -1.80 -1.48 -2.81 -0.63 -1.25 1.02 -1.64 3.28 -0.70 4.14 0.86 0.94 3.13 0.55 4.14 -0.70z m-14.22 -10.86 l8.67 -8.98 3.83 0 c3.83 0 3.83 0 11.88 8.20 7.58 7.66 10.16 9.53 10.16 7.34 0 -1.48 -18.75 -19.45 -20.78 -19.92 -2.89 -0.70 -6.33 1.95 -15.86 12.11 -7.66 8.20 -9.06 10.23 -7.11 10.23 0.31 0 4.45 -4.06 9.22 -8.98z m-9.92 -12.50 c8.13 -8.59 10.08 -11.09 10.08 -13.13 0 -1.02 -3.75 -5.39 -9.92 -11.64 -8.83 -8.91 -11.95 -11.33 -11.95 -9.38 0 0.31 3.91 4.45 8.59 9.14 8.44 8.36 8.59 8.67 8.59 12.11 0 3.36 -0.31 3.83 -8.28 12.27 -4.53 4.84 -8.05 9.14 -7.73 9.61 0.63 1.09 2.42 -0.39 10.63 -8.98z m46.56 -1.80 c-8.67 -8.67 -9.14 -9.30 -9.14 -12.34 0 -2.97 0.55 -3.75 8.59 -12.27 5.86 -6.09 8.28 -9.22 7.66 -9.61 -1.41 -0.94 -20.94 20.08 -20.94 22.58 0 0.47 4.84 5.70 10.70 11.64 7.27 7.27 10.94 10.55 11.48 10 0.55 -0.55 -2.19 -3.75 -8.36 -10z m-57.97 -12.03 c-0.78 -2.03 -2.89 -2.42 -4.53 -0.78 -1.48 1.48 -1.48 1.56 0.31 3.20 1.72 1.64 1.88 1.64 3.20 0.23 0.86 -0.78 1.25 -1.95 1.02 -2.66z m70.70 -0.31 c0 -0.55 -0.70 -1.41 -1.48 -1.88 -1.17 -0.55 -1.80 -0.47 -2.73 0.47 -1.56 1.48 -1.56 1.80 0.08 3.59 1.17 1.33 1.33 1.33 2.73 0.16 0.78 -0.78 1.41 -1.80 1.41 -2.34z m-25.86 -21.48 c6.95 -7.27 10.16 -11.25 9.69 -11.72 -0.55 -0.55 -3.75 2.34 -9.69 8.59 -8.52 9.06 -8.91 9.45 -12.03 9.45 -2.73 0 -3.75 -0.55 -7.03 -3.75 -11.02 -10.63 -14.45 -13.52 -15.23 -13.05 -1.09 0.70 1.64 3.67 13.44 14.53 4.61 4.30 8.83 7.50 9.38 7.34 0.55 -0.23 5.70 -5.39 11.48 -11.41z m-10.08 -11.33 c0.86 -0.94 0.78 -1.41 -0.47 -2.73 -1.41 -1.33 -1.64 -1.41 -3.28 -0.23 -1.41 0.94 -1.56 1.48 -0.94 2.73 1.02 1.80 3.36 1.95 4.69 0.23z m324.22 -8.52 c5.94 -4.61 18.98 -18.20 24.84 -25.94 l4.92 -6.48 3.75 0 c3.59 0 4.06 0.23 10.94 6.33 6.48 5.86 7.11 6.64 7.11 9.22 0 1.72 -1.17 5.08 -2.89 8.52 -2.73 5.39 -2.81 5.86 -1.72 7.81 0.70 1.41 1.95 2.19 3.36 2.34 7.42 0.86 30.55 -35.55 41.25 -65.08 9.92 -27.19 14.22 -50.31 14.22 -75.78 -0.08 -31.72 -6.64 -58.75 -21.09 -87.89 -9.77 -19.61 -20 -34.14 -35.16 -50 -14.38 -14.92 -24.84 -23.28 -52.19 -41.72 -40.94 -27.58 -44.14 -32.58 -55.16 -86.80 -11.17 -55 -21.17 -84.14 -39.45 -115.70 -2.89 -4.92 -5.08 -9.61 -5.08 -10.86 0 -1.25 1.09 -3.36 2.73 -5.31 3.28 -3.83 3.44 -6.09 0.70 -8.28 -1.88 -1.48 -2.73 -1.56 -8.59 -1.09 -4.38 0.31 -6.56 0.16 -6.56 -0.39 0 -1.25 -10.94 -12.58 -13.36 -13.83 -3.05 -1.64 -5.70 -1.48 -7.34 0.39 -1.95 2.19 -1.72 4.84 1.48 13.28 3.91 10.39 3.83 11.64 -1.25 14.84 -24.69 15.39 -45.86 31.72 -84.30 64.69 -24.14 20.63 -29.06 24.45 -36.41 27.89 -9.22 4.45 -15.70 5.86 -26.41 5.86 -20.16 0 -26.56 -3.52 -62.50 -33.98 -39.61 -33.59 -60.08 -49.77 -76.02 -60.16 -6.95 -4.61 -7.19 -4.77 -7.19 -7.73 0 -1.64 1.25 -6.17 2.81 -10.08 3.36 -8.28 3.98 -12.11 2.50 -14.06 -2.66 -3.59 -11.95 1.95 -19.30 11.41 -3.83 5 -5.16 5.39 -12.03 3.28 -4.22 -1.25 -6.72 -0.70 -8.59 2.03 -1.09 1.48 -1.09 1.95 -0.08 3.91 0.63 1.25 2.19 3.44 3.44 4.92 1.41 1.56 2.34 3.52 2.34 4.77 0 1.17 -1.72 5 -3.83 8.52 -11.02 18.28 -22.19 44.69 -28.13 66.41 -3.28 11.88 -5.94 23.91 -10.94 49.77 -7.11 36.25 -13.52 50.94 -29.30 66.80 -6.02 6.02 -10.70 9.45 -30.23 22.34 -36.17 23.98 -48.13 34.61 -54.61 48.52 -3.91 8.28 -5.08 15.78 -3.98 25.39 0.86 7.66 3.83 19.61 5.63 23.05 0.78 1.33 1.25 0.70 3.75 -5.39 7.58 -18.28 23.20 -34.69 42.97 -45.08 9.22 -4.84 24.77 -10.31 33.59 -11.80 10.78 -1.80 23.13 -1.64 28.59 0.39 2.34 0.86 12.27 6.64 22.11 12.73 26.72 16.80 39.14 23.28 60.16 31.64 28.52 11.33 65.94 18.83 93.98 18.83 10 0 11.72 -0.16 13.28 -1.48 l1.80 -1.41 -9.77 -6.48 c-33.52 -22.34 -56.25 -42.03 -78.52 -68.05 -35.78 -41.80 -52.97 -87.66 -52.89 -141.72 0 -23.44 2.73 -41.88 9.30 -63.05 l2.89 -9.22 3.75 0 3.75 0 13.98 15.47 c35.47 38.98 64.30 75.47 73.13 92.34 4.53 8.67 5.47 12.34 7.97 29.69 5.47 39.14 11.80 62.34 24.53 90.08 8.67 19.06 26.95 45.86 31.17 45.86 3.52 0 3.83 -1.64 4.22 -22.27 0.31 -14.92 0.78 -21.72 2.03 -28.91 6.56 -38.05 20.86 -69.30 50 -109.38 24.77 -34.14 55.16 -70.16 83.20 -98.59 l17.11 -17.42 3.67 0 3.75 0 3.20 9.92 c8.44 26.56 11.80 48.28 11.80 76.41 -0.08 15.08 -0.78 25.31 -2.81 37.11 -2.73 15.94 -5.86 20.23 -19.77 27.11 -19.22 9.45 -30.55 17.03 -47.34 31.56 -29.14 25.16 -53.91 60.86 -69.45 100.16 -2.19 5.47 -2.42 8.36 -0.70 8.91 0.55 0.23 5.94 -4.45 12.03 -10.23 6.02 -5.86 14.22 -13.28 18.13 -16.41 13.98 -11.25 33.52 -22.50 50.86 -29.38 11.09 -4.38 32.19 -9.38 45.94 -10.86 9.69 -1.09 35.78 -1.09 44.38 -0.08 43.36 5.39 83.91 24.61 112.89 53.44 29.84 29.77 45.16 69.84 44.06 115.23 -0.23 7.19 -0.63 12.03 -1.17 12.58 -1.56 1.56 -12.27 3.91 -17.81 3.91 l-5.39 0 0.70 -8.75 c1.25 -15.94 0.70 -31.09 -1.56 -42.11 -3.28 -16.17 -10.47 -34.38 -18.36 -46.64 -3.59 -5.47 -4.53 -6.17 -6.09 -4.61 -1.09 1.02 -0.78 1.88 2.66 8.13 14.06 24.84 19.92 52.11 17.42 81.02 -1.56 18.36 -0.86 16.88 -8.59 19.69 -21.95 7.97 -33.75 18.36 -33.75 29.61 0 4.84 3.44 11.72 9.06 18.36 5.78 6.80 5.86 8.83 0.55 16.72 -6.48 9.53 -12.89 17.11 -22.42 26.17 -5 4.77 -8.83 8.98 -8.52 9.45 0.63 1.02 2.58 0 8.20 -4.30z m-233.20 1.56 c2.27 -2.19 2.42 -3.28 0.63 -5.23 -1.56 -1.72 -3.98 -1.80 -5.86 -0.08 -1.88 1.72 -1.80 3.75 0.31 5.70 2.19 2.03 2.66 1.95 4.92 -0.39z m-343.44 -18.05 c1.64 -4.53 1.95 -6.88 1.95 -14.77 0 -8.28 -0.23 -10.08 -2.11 -15.63 -6.64 -18.91 -21.41 -31.09 -38.91 -32.27 -10.08 -0.63 -21.33 3.75 -30.08 11.80 -5.31 4.84 -6.02 6.80 -3.36 8.67 1.48 1.02 2.34 0.70 10.94 -3.67 l9.30 -4.84 11.17 0 c10.16 0 11.41 0.16 15 1.95 5.23 2.50 11.33 8.75 13.83 14.06 3.44 7.42 3.98 11.56 3.52 25.63 l-0.47 12.81 1.95 1.95 c1.80 1.80 2.11 1.88 3.67 0.86 1.02 -0.70 2.50 -3.36 3.59 -6.56z m-29.92 4.77 c2.11 -1.41 4.61 -7.19 5.78 -13.36 0.78 -4.14 0.78 -5.47 -0.39 -9.30 -4.77 -16.48 -18.91 -21.72 -31.95 -11.72 -9.06 6.88 -7.89 14.30 1.48 8.98 3.91 -2.19 4.69 -2.42 10.31 -2.19 5.94 0.23 6.09 0.31 7.89 2.97 1.80 2.58 1.88 3.20 1.48 12.50 -0.31 8.98 -0.16 9.92 1.25 11.56 1.88 2.03 2.03 2.03 4.14 0.55z m73.83 -8.98 c0.78 -0.47 2.03 -1.88 2.66 -3.20 1.17 -2.19 1.17 -2.58 -0.16 -4.84 -2.81 -4.77 -7.81 -4.61 -10.70 0.31 -1.17 2.03 -1.17 2.42 -0.08 4.53 1.88 3.67 5 4.92 8.28 3.20z m257.81 -11.33 c2.66 -10.63 5.55 -15.55 11.95 -19.77 3.83 -2.66 10.94 -5.63 13.28 -5.63 0.94 0 2.34 -0.47 3.13 -1.02 1.25 -0.86 0.86 -1.09 -2.81 -2.03 -6.33 -1.64 -13.36 -5 -16.95 -8.28 -3.59 -3.28 -7.19 -10.23 -8.67 -16.80 -0.55 -2.34 -1.25 -4.77 -1.56 -5.39 -0.70 -1.25 -0.78 -0.94 -2.42 6.17 -2.97 13.28 -10 20.70 -22.73 23.98 -2.97 0.78 -5.31 1.56 -5.31 1.88 0 0.31 1.88 1.02 4.14 1.48 13.83 3.28 20.94 10.78 24.45 26.02 0.78 3.28 1.56 5.86 1.72 5.70 0.16 -0.16 0.94 -3.05 1.80 -6.33z m250.78 -1.88 c3.98 -3.98 4.14 -6.95 0.47 -10.63 -1.48 -1.48 -3.59 -2.89 -4.69 -3.13 -4.45 -1.17 -10.70 5.16 -9.53 9.53 0.23 1.17 1.72 3.28 3.20 4.69 3.83 3.59 6.64 3.44 10.55 -0.47z m-310.78 -1.48 c1.64 -1.80 0.86 -4.22 -1.80 -5.63 -3.05 -1.64 -7.11 2.42 -5.47 5.47 1.80 3.36 4.30 3.44 7.27 0.16z m-313.52 -59.14 c0.86 -1.02 0.63 -3.13 -1.41 -11.95 -4.69 -20.16 -6.88 -34.84 -7.89 -53.52 -0.55 -10.08 -0.94 -12.66 -2.03 -13.83 -1.80 -2.03 -3.13 -1.95 -4.61 0.16 -3.52 4.92 0.55 41.64 7.42 67.81 1.33 4.92 2.89 9.77 3.52 10.78 1.33 2.03 3.59 2.27 5 0.55z m230.94 -27.03 c10.16 -3.13 16.80 -8.98 21.41 -18.83 6.80 -14.53 1.41 -30.86 -13.52 -40.55 -4.61 -2.97 -12.66 -5.39 -17.97 -5.39 -2.34 0 -2.81 -0.39 -4.14 -3.28 -3.83 -8.52 -13.75 -14.53 -22.19 -13.52 -8.13 1.02 -13.52 4.30 -23.05 14.14 -5.70 5.86 -9.77 9.38 -12.11 10.39 -4.38 1.95 -10.86 2.11 -19.22 0.39 -8.44 -1.80 -13.91 -1.17 -20 2.19 -9.22 5.08 -15.23 15.23 -14.45 24.38 1.33 15.31 18.44 29.38 35.70 29.38 12.50 0 27.50 -8.36 37.73 -20.94 4.61 -5.70 4.61 -5.70 8.13 -5.47 l3.52 0.23 1.80 4.92 c4.14 11.41 13.67 19.84 25.63 22.42 6.56 1.41 6.64 1.41 12.73 -0.47z m63.20 -58.52 c0.94 -1.88 0.94 -2.34 -0.39 -4.45 -1.88 -3.05 -4.22 -3.83 -6.64 -2.27 -2.89 1.88 -3.67 3.91 -2.58 6.33 2.11 4.61 7.34 4.77 9.61 0.39z m153.59 -6.95 c2.97 -3.05 2.97 -5.63 -0.16 -8.20 -3.13 -2.66 -5 -2.58 -7.81 0.23 -2.89 2.97 -2.89 4.30 0.39 7.58 3.28 3.28 4.61 3.28 7.58 0.39z m171.80 -6.56 c0 -2.73 2.66 -9.45 4.69 -11.72 2.50 -2.89 3.91 -3.67 10.39 -6.09 l4.61 -1.64 -5 -1.72 c-2.66 -0.86 -5.70 -2.19 -6.72 -2.89 -2.81 -2.03 -5.47 -6.02 -6.80 -10.39 -0.70 -2.19 -1.48 -4.53 -1.72 -5.16 -0.23 -0.63 -0.86 0.78 -1.48 3.13 -2.34 8.91 -6.17 12.89 -14.92 15.63 l-4.38 1.33 3.44 0.86 c4.61 1.17 10.55 5 12.42 8.13 0.86 1.41 2.19 4.61 2.97 7.03 1.25 4.22 2.50 5.94 2.50 3.52z m-546.72 -3.98 c1.88 -2.27 1.72 -3.83 -0.63 -6.64 -3.05 -3.67 -6.95 -2.97 -9.38 1.64 -1.17 2.27 -1.17 2.50 0.31 4.45 3.13 4.30 6.56 4.45 9.69 0.55z m58.91 -21.95 c2.97 -2.27 5.78 -7.19 5.78 -10.08 0 -4.69 -3.52 -9.53 -8.75 -12.27 -1.64 -0.78 -3.67 -1.48 -4.53 -1.48 -3.59 0 -10 4.61 -12.19 8.75 -3.36 6.48 1.95 15.39 10.63 17.81 2.58 0.70 5.78 -0.23 9.06 -2.73z m430.23 -8.13 c4.69 -3.05 7.73 -7.66 8.20 -12.50 0.63 -7.03 -5.70 -15.23 -13.13 -16.88 -4.14 -0.94 -8.67 1.02 -12.97 5.39 -6.48 6.64 -6.95 12.42 -1.64 19.30 5.23 6.95 12.97 8.75 19.53 4.69z m-52.03 -4.14 c2.27 -2.11 2.27 -3.52 0.08 -5.86 -2.11 -2.27 -3.52 -2.27 -5.86 -0.08 -2.27 2.11 -2.27 3.52 -0.08 5.86 2.11 2.27 3.52 2.27 5.86 0.08z m-179.92 -20.31 c-26.80 -31.95 -44.30 -63.36 -63.20 -113.52 -2.42 -6.41 -5.08 -12.42 -5.94 -13.28 -1.48 -1.48 -1.48 -1.48 -3.13 0.16 l-1.64 1.56 2.89 8.52 c9.61 27.97 26.56 61.48 42.34 83.75 10.23 14.45 33.28 41.56 34.38 40.47 0.23 -0.23 -2.34 -3.67 -5.70 -7.66z m63.28 -5.31 c12.73 -43.83 33.75 -84.30 59.92 -115.78 3.75 -4.45 11.41 -12.97 17.03 -18.83 10.23 -10.78 11.17 -12.42 7.73 -13.52 -1.25 -0.39 -3.13 1.09 -9.38 7.19 -37.03 36.72 -63.44 84.92 -78.75 143.67 -2.11 8.36 -2.42 11.72 -0.70 10 0.31 -0.31 2.19 -6.09 4.14 -12.73z m354.53 1.80 c1.80 -1.64 1.80 -4.14 -0.16 -15.16 -3.52 -19.30 -11.02 -44.38 -18.36 -60.86 -4.14 -9.45 -5.47 -11.09 -7.97 -10.08 -1.02 0.31 -1.80 1.25 -1.80 1.95 0 0.70 2.27 6.95 5 13.91 7.34 18.52 13.05 38.59 16.80 59.77 1.02 5.23 2.19 9.53 2.97 10.39 1.56 1.72 1.72 1.72 3.52 0.08z m-80.39 -88.98 c1.41 -0.70 3.28 -1.95 4.22 -2.89 1.56 -1.33 2.42 -1.48 6.95 -1.09 3.52 0.31 5.94 0.16 7.66 -0.55 3.44 -1.41 7.34 -6.09 8.36 -10.08 0.55 -2.34 1.56 -3.75 3.28 -4.84 3.20 -2.03 7.19 -8.05 7.89 -11.80 0.47 -2.34 0.16 -3.75 -1.88 -7.81 -2.58 -5 -2.58 -5.39 -1.17 -12.50 0.63 -3.05 -1.80 -8.13 -4.92 -10.39 -1.25 -0.86 -3.83 -1.95 -5.86 -2.50 -2.81 -0.70 -3.67 -1.25 -3.67 -2.42 0 -3.59 -5 -9.45 -8.98 -10.47 -1.09 -0.23 -2.97 0.08 -4.38 0.78 -3.44 1.72 -7.50 1.64 -8.05 -0.16 -0.63 -1.80 -4.45 -4.06 -6.95 -4.06 -2.66 0 -6.80 3.05 -8.28 6.02 -1.17 2.34 -1.56 2.58 -5.16 2.58 -7.73 0 -11.80 4.77 -10.86 12.73 l0.47 4.14 -4.38 4.45 c-6.33 6.33 -9.45 13.13 -9.45 20.86 0 4.92 0.39 6.64 2.50 11.09 3.44 7.27 8.52 12.50 15.63 16.02 5.16 2.58 6.80 2.97 13.75 3.36 4.38 0.31 8.59 0.63 9.38 0.63 0.78 0.08 2.50 -0.39 3.91 -1.09z m-574.22 -1.17 c17.66 -5.86 27.03 -22.50 21.64 -38.52 -2.11 -6.33 -6.72 -13.44 -11.56 -17.73 -6.56 -5.78 -17.58 -10.08 -26.02 -10.08 -2.81 0 -3.05 -0.16 -3.13 -2.11 -0.16 -5.94 -5.08 -13.20 -10.78 -16.09 -2.27 -1.09 -4.53 -1.88 -5 -1.64 -0.63 0.23 -0.94 2.58 -0.94 6.80 0 7.19 -1.64 11.48 -7.27 19.84 -5.08 7.50 -6.64 11.17 -6.72 15.63 -0.08 2.89 0.39 4.61 1.56 6.25 1.09 1.41 1.80 3.91 2.03 7.03 1.33 14.45 14.69 27.81 30.94 31.09 7.42 1.48 9.69 1.41 15.23 -0.47z m145.70 -68.20 c1.17 -0.63 2.97 -2.03 4.06 -3.13 3.59 -3.91 1.88 -10.16 -3.52 -12.73 -2.34 -1.09 -2.97 -1.17 -5.63 -0.16 -3.05 1.17 -6.48 5.31 -6.48 7.73 0 2.27 3.36 6.56 6.25 7.97 3.28 1.64 2.73 1.64 5.31 0.31z m272.58 -2.19 c3.13 -1.88 5.70 -5.94 5.70 -8.98 0 -4.61 -6.41 -11.17 -10.94 -11.17 -4.61 0 -10.94 6.56 -10.94 11.25 0 3.44 3.20 7.81 7.19 9.77 3.59 1.72 4.92 1.64 8.98 -0.86z m-404.30 -46.95 c9.61 -9.53 21.41 -20.70 26.33 -24.77 4.92 -4.06 10.86 -9.14 13.13 -11.25 4.14 -3.83 4.22 -3.91 2.73 -5.39 -1.33 -1.25 -1.80 -1.33 -3.36 -0.55 -5.78 3.05 -31.33 25.16 -43.36 37.58 -8.36 8.59 -16.72 18.20 -16.72 19.06 0 1.17 1.64 2.73 2.89 2.73 0.55 0 8.83 -7.81 18.36 -17.42z m270.47 9.38 c9.38 -4.30 16.41 -12.34 19.30 -21.80 2.19 -7.03 1.64 -12.27 -2.03 -19.92 -3.52 -7.50 -8.83 -12.73 -16.48 -16.41 -5.70 -2.73 -6.09 -2.81 -12.73 -2.34 -8.36 0.55 -13.36 2.58 -20.16 8.20 -9.14 7.58 -13.28 20.47 -10 30.70 3.52 11.02 13.59 20.63 24.38 23.36 5 1.25 12.81 0.47 17.73 -1.80z m259.84 0.86 c1.56 -1.09 2.34 -2.42 2.34 -3.75 0 -1.09 0.39 -2.42 0.94 -2.97 0.70 -0.70 0.55 -1.02 -0.39 -1.41 -0.94 -0.31 -1.33 -1.41 -1.33 -3.52 0 -2.97 -0.08 -3.05 -2.73 -3.05 -1.80 0 -2.97 -0.47 -3.20 -1.17 -0.47 -1.09 -0.63 -1.09 -1.41 -0.08 -0.47 0.63 -1.88 1.25 -3.20 1.41 -1.95 0.16 -2.42 0.63 -2.58 2.58 -0.16 1.33 -0.55 2.73 -0.86 3.13 -0.31 0.47 -0.47 2.27 -0.23 4.14 0.31 3.05 0.47 3.28 2.58 3.28 1.72 0 2.27 0.39 2.27 1.56 0 2.19 4.77 2.11 7.81 -0.16z m-38.28 -43.20 c1.56 -1.64 1.72 -2.19 0.94 -3.91 -1.33 -2.81 -4.45 -3.36 -6.88 -1.09 -2.27 2.11 -2.27 2.34 -0.23 4.92 2.03 2.58 3.83 2.58 6.17 0.08z m-295.47 -26.17 c1.41 -0.86 3.13 -2.73 3.83 -4.22 1.09 -2.27 1.09 -3.05 0.23 -5.08 -1.25 -3.05 -5 -6.33 -7.27 -6.33 -2.73 0 -6.41 2.73 -7.89 5.78 -1.17 2.50 -1.17 3.05 -0.16 4.92 1.72 3.36 5.23 6.25 7.89 6.41 0.47 0.08 1.95 -0.63 3.36 -1.48z m130.08 -19.69 c1.56 -3.67 6.25 -8.83 10.23 -11.17 1.80 -1.02 5.55 -2.50 8.28 -3.20 2.81 -0.70 5.39 -1.56 5.78 -1.88 0.31 -0.31 -1.41 -1.09 -3.91 -1.56 -13.13 -2.73 -20 -9.84 -23.05 -23.59 -0.47 -2.50 -1.17 -4.30 -1.48 -4.14 -0.31 0.23 -0.94 2.34 -1.48 4.84 -1.09 5.78 -4.69 13.28 -7.58 16.02 -3.20 2.89 -8.13 5.31 -14.22 6.80 l-5.23 1.33 6.80 2.11 c3.91 1.25 8.20 3.20 10.16 4.69 4.30 3.28 7.89 9.30 9.61 16.02 0.70 2.89 1.48 5.78 1.72 6.41 0.23 0.63 1.09 -1.33 1.80 -4.38 0.78 -3.05 1.95 -6.80 2.58 -8.28z m-92.89 -24.14 c2.66 -2.11 2.66 -5.31 0 -8.05 -2.58 -2.50 -3.52 -2.58 -6.48 0 -2.97 2.50 -3.05 4.61 -0.31 7.50 2.50 2.58 3.98 2.73 6.80 0.55z"/>
  <path d="M725 563.83 c-10.86 -9.61 -20.63 -20.08 -23.44 -25.08 -2.03 -3.44 -2.34 -4.77 -2.34 -10.08 0 -4.53 0.39 -6.88 1.56 -9.06 1.80 -3.59 7.03 -8.36 12.34 -11.25 4.53 -2.42 18.59 -7.81 25.08 -9.61 12.89 -3.59 19.45 -5 22.97 -5 l3.91 0 -0.47 5.86 c-0.23 3.20 -0.63 6.09 -0.86 6.48 -0.23 0.39 -3.52 1.25 -7.27 2.03 -25.86 5.08 -40.08 12.81 -40.08 21.95 0 4.61 6.64 13.13 19.30 24.61 5.78 5.31 6.41 6.09 6.41 8.83 0.08 1.72 -0.55 4.06 -1.25 5.31 -1.17 1.88 -1.88 2.27 -4.53 2.27 -2.81 0 -3.83 -0.63 -11.33 -7.27z"/>
  <path d="M733.52 549.45 c-11.25 -10.78 -12.42 -12.58 -12.42 -18.67 0 -3.98 0.31 -5.23 1.88 -7.11 4.06 -4.84 21.02 -11.02 31.95 -11.72 l6.80 -0.47 0 2.27 c0 1.25 -0.47 3.83 -1.09 5.78 -1.09 3.91 -2.11 4.45 -11.80 6.33 -3.67 0.70 -5.31 1.48 -7.58 3.83 -1.64 1.64 -2.97 3.67 -2.97 4.61 0 1.09 2.11 3.83 5.47 7.34 6.02 6.17 6.72 8.36 4.14 12.97 -1.09 1.88 -1.95 2.42 -3.91 2.42 -2.11 0 -3.75 -1.17 -10.47 -7.58z"/>
  <path d="M745.47 540.39 c-2.11 -2.11 -2.50 -3.20 -2.50 -6.17 0 -4.30 0.39 -4.53 7.89 -4.53 l5.39 0 0 2.58 c0 1.33 -0.70 4.30 -1.48 6.41 -1.33 3.52 -1.72 3.91 -4.14 4.14 -2.11 0.16 -3.05 -0.31 -5.16 -2.42z"/>
  <path d="M582.27 364.45 c-6.95 -2.97 -7.81 -15.55 -1.41 -20.55 1.72 -1.41 3.20 -1.72 7.58 -1.72 8.28 0 11.56 3.05 11.56 10.94 0 7.89 -4.22 12.50 -11.41 12.50 -2.11 -0.08 -5 -0.55 -6.33 -1.17z"/>
 </g>
 <g fill="#2b1409">
  <path d="M235.70 798.91 c-3.98 -1.48 -7.58 -4.30 -15.08 -11.80 -8.67 -8.67 -12.19 -14.14 -12.66 -19.38 -0.23 -3.52 0.39 -6.17 3.98 -17.03 10.16 -30.31 16.02 -54.92 18.91 -80 0.63 -5.55 1.17 -12.73 1.17 -15.78 l0 -5.70 -2.27 0 c-1.25 0 -2.66 0.55 -3.20 1.09 -1.72 2.19 -15.70 10.78 -22.89 14.14 -22.66 10.63 -42.34 12.50 -64.53 6.17 -13.20 -3.75 -31.33 -14.22 -43.91 -25.23 -5.47 -4.84 -6.80 -4.92 -17.19 -1.64 -8.20 2.58 -14.22 2.97 -16.95 1.09 -2.27 -1.56 -2.27 -6.02 -0.08 -9.69 2.73 -4.38 11.56 -13.91 17.50 -18.75 11.17 -9.06 13.98 -9.30 26.95 -1.95 17.42 9.84 26.64 12.89 41.09 13.44 10.94 0.47 17.11 -0.63 21.48 -3.75 1.17 -0.78 2.34 -1.48 2.66 -1.48 1.02 0 10 -7.58 14.38 -11.95 l4.22 -4.30 -5.16 -4.84 c-7.42 -6.95 -9.92 -12.97 -7.42 -18.28 0.47 -1.17 4.77 -4.69 9.92 -8.20 15.63 -10.78 25.86 -20.70 29.53 -28.75 2.03 -4.38 1.56 -7.27 -1.17 -7.27 -0.70 0 -6.25 -0.39 -12.27 -0.86 -46.88 -3.52 -88.05 -23.59 -123.44 -60.23 -32.34 -33.44 -52.89 -76.02 -57.50 -119.22 -1.72 -16.64 -0.23 -40.70 3.67 -58.36 4.53 -20.70 15.39 -47.42 21.80 -53.91 2.42 -2.34 3.28 -2.73 6.64 -2.73 3.20 0 4.06 0.31 5.39 2.03 2.34 2.97 2.03 5.94 -1.80 17.66 -4.53 13.44 -6.95 22.81 -9.14 35.39 -2.42 13.52 -2.58 40.47 -0.39 54.22 7.34 46.64 34.38 88.13 75 115.16 21.64 14.38 45.47 23.05 70.63 25.63 12.66 1.33 40.23 0.47 52.11 -1.56 29.38 -5 34.06 -6.41 56.25 -17.27 6.02 -2.89 11.48 -5.47 12.11 -5.70 2.42 -0.78 24.38 -16.80 30.16 -21.95 15 -13.52 26.80 -29.38 37.89 -50.70 5.16 -10.08 6.95 -12.81 9.53 -14.69 3.75 -2.73 7.50 -2.97 9.53 -0.70 l1.41 1.56 1.72 -1.56 c2.27 -2.11 7.34 -2.11 10 0 1.09 0.86 4.84 7.19 8.36 13.98 11.09 21.80 20.39 35.23 33.98 48.83 27.19 27.50 64.77 44.69 101.17 46.25 l8.98 0.39 -2.03 -1.56 c-1.17 -0.94 -4.14 -4.14 -6.56 -7.11 l-4.45 -5.47 -6.41 0 c-18.67 -0.08 -33.13 -9.45 -38.44 -25 -1.95 -5.78 -1.95 -16.80 0 -22.66 3.13 -9.38 9.61 -17.34 17.89 -22.27 7.19 -4.14 20.23 -5.55 28.75 -3.05 9.53 2.81 12.34 5.08 28.83 22.73 4.84 5.23 6.64 6.56 10.55 8.05 4.06 1.48 5.39 1.64 10.16 1.09 3.05 -0.39 10.08 -0.63 15.63 -0.70 9.61 0 10.39 0.16 14.61 2.19 6.17 3.05 11.17 8.13 14.14 14.45 2.19 4.69 2.50 6.02 2.50 12.42 0 3.98 0.08 7.27 0.16 7.27 0.08 0 3.67 -2.03 8.05 -4.61 9.14 -5.31 19.45 -14.45 28.13 -24.84 3.20 -3.75 7.19 -8.36 8.83 -10.16 6.95 -7.27 16.17 -4.14 16.17 5.47 0 3.98 -2.81 12.42 -6.64 20.08 -11.64 23.20 -33.28 45.47 -57.27 58.91 -20.55 11.48 -38.44 16.95 -66.17 20 -8.83 1.02 -10.08 1.80 -9.30 6.25 0.23 1.48 1.95 5.94 3.83 9.77 2.58 5.39 4.92 8.67 9.69 13.83 10.31 10.94 19.84 17.27 33.28 21.95 4.30 1.48 8.44 2.97 9.14 3.28 0.70 0.31 1.88 1.80 2.58 3.28 1.17 2.42 1.25 3.28 0.39 6.02 -1.25 4.30 -5 11.56 -8.67 17.03 -1.72 2.42 -3.05 4.77 -3.05 5.16 0 1.02 9.53 5.47 14.61 6.80 2.58 0.70 7.97 1.17 12.73 1.17 13.13 0 23.91 -3.52 40.94 -13.20 8.75 -5.08 10 -5.55 13.98 -5.55 3.98 0 4.84 0.39 11.25 4.61 7.73 5.23 20 16.33 21.72 19.69 1.72 3.28 1.41 6.02 -0.86 8.28 -1.80 1.80 -2.34 1.95 -6.41 1.48 -2.42 -0.31 -7.97 -1.56 -12.19 -2.81 -4.30 -1.33 -8.28 -2.34 -8.91 -2.34 -0.70 0 -4.61 2.81 -8.75 6.17 -17.73 14.53 -33.83 22.73 -51.48 26.33 -5.16 1.02 -9.06 1.17 -17.58 0.86 -16.17 -0.63 -27.42 -4.06 -41.88 -12.73 -3.83 -2.34 -7.50 -4.22 -8.05 -4.22 -1.41 0 -9.84 4.22 -12.27 6.17 l-1.88 1.48 1.33 10.08 c2.66 19.06 8.75 42.73 17.81 69.30 6.64 19.61 6.80 21.56 2.73 29.69 -5.55 11.09 -20.23 25.47 -26.09 25.47 -3.52 0 -5.31 -1.09 -6.25 -3.75 -1.02 -2.97 -0.63 -4.92 3.13 -16.41 1.80 -5.63 2.97 -10.31 2.66 -11.33 -0.23 -1.02 -3.13 -6.02 -6.48 -11.09 -16.95 -26.25 -32.03 -57.27 -37.11 -76.48 l-1.80 -6.80 -4.61 0.23 -4.69 0.23 -6.41 9.53 c-16.09 24.06 -38.75 45.78 -63.98 61.17 -37.97 23.20 -91.41 35.78 -136.88 32.11 -31.88 -2.58 -43.52 -7.81 -38.91 -17.66 2.27 -4.69 3.44 -4.84 32.11 -5.31 14.14 -0.23 27.97 -0.78 30.78 -1.17 2.81 -0.47 7.34 -1.25 10.16 -1.72 2.81 -0.47 6.64 -1.17 8.59 -1.56 4.92 -1.02 29.06 -9.45 35.16 -12.34 2.81 -1.25 7.03 -3.13 9.38 -4.14 2.34 -1.02 8.59 -4.53 13.91 -7.89 5.31 -3.36 9.84 -6.09 10 -6.09 2.58 0 26.17 -22.19 34.14 -32.03 20.23 -25 32.27 -55 36.88 -91.41 3.36 -27.11 1.64 -67.19 -3.20 -73.59 -0.70 -1.02 -5.55 -5.16 -10.70 -9.22 -5.23 -4.06 -13.91 -11.80 -19.38 -17.19 -20.94 -20.63 -33.44 -40 -41.56 -64.61 -1.88 -5.63 -3.59 -9.61 -4.22 -9.61 -0.55 0 -1.33 1.48 -1.80 3.36 -5 18.83 -14.84 38.20 -27.27 53.67 -13.36 16.64 -25.86 27.73 -47.03 42.03 -6.95 4.69 -8.59 6.17 -9.61 8.83 -0.70 1.72 -2.50 12.03 -3.98 22.81 -7.03 50.23 -7.19 50.70 -12.66 55.16 l-3.13 2.50 -0.55 7.19 c-0.70 9.53 -3.75 26.56 -7.03 40.08 -8.44 33.98 -23.05 66.48 -44.77 99.22 -3.98 6.02 -7.27 11.72 -7.27 12.66 0 0.94 1.80 6.02 3.91 11.33 4.38 10.78 4.84 14.77 2.27 18.05 -1.80 2.27 -3.59 2.50 -7.97 0.94z m100.23 -30.94 c23.05 -2.81 49.61 -9.30 63.20 -15.39 1.48 -0.70 5.16 -2.19 8.13 -3.44 14.38 -5.94 35.78 -19.30 48.20 -30.08 15.94 -13.75 28.59 -28.05 38.20 -42.89 3.05 -4.69 6.09 -9.45 6.80 -10.47 1.33 -1.88 1.41 -1.88 12.66 -1.41 12.81 0.47 18.67 -0.16 31.25 -3.44 14.30 -3.67 26.95 -9.45 40.70 -18.59 14.61 -9.61 26.72 -22.19 34.38 -35.55 4.53 -8.05 4.53 -7.89 0.78 -8.98 -29.30 -8.75 -55.31 -35.94 -55.39 -57.73 0 -4.45 1.33 -8.52 3.44 -10.23 0.78 -0.70 4.30 -1.41 8.52 -1.72 14.84 -1.25 18.20 -1.64 19.69 -2.19 0.86 -0.39 5.94 -1.72 11.33 -3.05 9.69 -2.34 22.58 -7.27 31.02 -11.80 2.42 -1.33 4.77 -2.42 5.16 -2.42 0.47 0 2.19 -1.09 3.98 -2.34 1.80 -1.33 6.17 -4.53 9.84 -7.11 8.52 -6.17 25.78 -23.52 31.48 -31.72 2.50 -3.52 6.09 -9.38 7.97 -12.97 3.36 -6.25 6.95 -15.31 6.33 -15.94 -0.16 -0.16 -1.80 1.72 -3.59 4.22 -4.61 6.09 -16.41 18.20 -22.89 23.44 -5.55 4.45 -14.69 10.39 -21.25 13.75 -3.20 1.64 -4.30 2.81 -6.17 6.33 -3.44 6.64 -11.33 14.06 -19.22 18.05 -8.67 4.30 -14.69 5.39 -28.13 4.92 -9.45 -0.31 -11.25 -0.63 -17.19 -2.81 -3.59 -1.41 -7.81 -3.36 -9.38 -4.38 -2.42 -1.56 -4.06 -1.88 -13.28 -2.34 -45 -2.34 -82.50 -18.67 -112.89 -49.22 -13.52 -13.59 -22.97 -26.95 -33.67 -47.66 -3.05 -5.94 -5.78 -10.39 -6.09 -9.92 -0.70 1.17 0.86 15.31 2.66 23.59 4.06 18.91 13.98 38.91 27.97 56.56 6.88 8.67 21.48 22.73 33.44 32.27 12.11 9.61 13.83 11.88 15.55 20.23 2.81 13.75 3.44 47.81 1.17 69.38 -1.72 16.72 -6.56 37.42 -12.11 51.88 -18.59 48.67 -58.52 85.78 -111.56 103.67 -24.22 8.20 -43.67 11.25 -75.39 11.56 -10.86 0.16 -19.92 0.47 -20.16 0.70 -1.09 1.09 17.42 4.38 31.33 5.47 7.58 0.63 27.19 0.47 33.20 -0.23z m-76.95 -153.13 c19.06 -3.75 36.56 -13.36 38.52 -21.25 0.86 -3.44 2.97 -17.66 7.19 -47.89 1.33 -9.45 2.73 -18.44 3.20 -19.92 1.64 -5.16 5.23 -8.67 14.92 -14.45 11.09 -6.64 32.42 -25.78 42.11 -37.81 18.44 -22.73 29.22 -49.30 30.86 -75.94 l0.47 -7.34 -6.33 11.95 c-10.31 19.53 -17.97 30.39 -30.55 43.44 -37.27 38.52 -92.97 59.14 -154.69 57.27 -21.41 -0.63 -33.20 -2.73 -50.86 -8.83 -23.52 -8.13 -45 -21.95 -64.77 -41.72 -26.80 -26.72 -42.73 -57.19 -49.30 -94.14 -1.64 -8.91 -1.80 -12.66 -1.80 -30.86 0 -22.81 1.02 -31.48 5.78 -49.92 2.73 -10.47 2.81 -10.94 0.70 -6.33 -4.69 10.31 -10.47 29.92 -12.97 44.14 -1.88 11.09 -1.88 40.70 0 51.17 3.59 19.30 8.52 34.06 17.34 51.95 10.78 21.80 22.81 38.52 40.63 56.25 21.02 20.94 40.55 33.98 65.86 43.91 16.33 6.41 31.88 9.69 53.98 11.48 l12.81 1.02 2.27 2.50 c1.88 2.11 2.19 3.05 2.19 7.42 0 2.73 -0.55 6.41 -1.17 8.20 -3.28 9.45 -15.94 22.11 -34.22 34.38 l-6.09 4.06 1.41 2.42 c0.78 1.33 3.67 4.30 6.48 6.64 13.05 10.94 29.84 17.58 47.81 18.91 4.45 0.39 8.44 0.70 8.98 0.78 0.55 0 4.69 -0.63 9.22 -1.48z"/>
  <path d="M376.17 795.23 c-3.91 -2.19 -4.61 -5.70 -1.72 -8.75 1.33 -1.48 4.38 -2.58 13.44 -4.84 17.27 -4.30 30.47 -9.06 44.53 -16.02 20.55 -10.08 34.30 -20 52.03 -37.27 9.38 -9.22 9.92 -9.61 13.05 -9.61 2.97 0 3.44 0.23 4.53 2.58 1.17 2.42 1.17 2.81 0 5.08 -0.70 1.33 -4.22 5.55 -7.97 9.45 -25.94 27.27 -61.88 47.81 -99.77 57.03 -12.03 2.97 -16.17 3.44 -18.13 2.34z"/>
  <path d="M457.97 791.80 c-2.11 -2.58 -2.19 -5.08 -0.31 -7.34 1.02 -1.25 3.05 -2.03 7.97 -2.89 17.34 -2.97 47.58 -10.86 52.50 -13.59 2.03 -1.17 8.13 -0.94 9.14 0.23 1.80 2.19 1.80 5.55 0.16 7.73 -4.14 5.23 -42.34 16.25 -61.02 17.58 -6.72 0.47 -6.80 0.47 -8.44 -1.72z"/>
  <path d="M604.30 736.72 c-1.64 -1.88 -1.88 -5.63 -0.39 -7.42 0.55 -0.63 4.92 -3.91 9.69 -7.19 12.73 -8.75 21.64 -15.55 31.56 -24.14 11.25 -9.77 13.28 -11.25 15.78 -11.25 2.89 0 5.47 2.97 5.47 6.33 0 2.34 -0.86 3.44 -6.41 8.91 -8.59 8.36 -28.59 23.83 -39.61 30.78 -9.84 6.09 -13.36 7.03 -16.09 3.98z"/>
  <path d="M184.30 732.58 c-13.91 -8.75 -40.78 -30.39 -43.75 -35.23 -1.88 -3.13 -1.88 -4.45 0.16 -7.03 1.25 -1.56 2.27 -2.03 4.53 -2.03 2.58 0 3.91 0.78 10.31 6.33 9.92 8.67 19.53 16.25 30.86 24.38 5.23 3.75 10 7.42 10.70 8.20 3.28 3.67 0.78 9.53 -3.98 9.53 -1.41 0 -4.92 -1.64 -8.83 -4.14z"/>
  <path d="M299.69 733.52 c-1.48 -1.17 -2.03 -2.34 -2.03 -4.14 0 -4.38 1.56 -5.08 13.91 -5.86 36.80 -2.50 71.09 -16.33 96.88 -39.14 20.86 -18.44 33.13 -39.77 38.05 -66.41 1.56 -8.28 2.11 -9.38 4.77 -9.38 3.28 0 4.45 2.11 3.83 6.95 -1.64 13.44 -6.56 29.61 -13.05 42.66 -17.34 34.92 -54.53 62.03 -99.92 72.66 -10.70 2.50 -24.77 4.30 -33.44 4.30 -5.78 0 -7.27 -0.23 -8.98 -1.64z"/>
  <path d="M352.34 676.56 c-1.88 -1.88 -2.03 -5.23 -0.31 -7.66 1.56 -2.19 6.48 -2.42 8.36 -0.31 1.95 2.19 1.72 6.80 -0.39 8.28 -2.42 1.72 -5.78 1.56 -7.66 -0.31z"/>
  <path d="M332.03 673.44 c-0.86 -0.86 -1.56 -2.11 -1.56 -2.73 0 -1.72 16.95 -19.84 21.02 -22.42 4.06 -2.58 6.56 -2.73 9.92 -0.70 2.97 1.80 18.36 16.88 20.23 19.84 1.25 1.95 1.25 2.27 0.08 4.06 -0.94 1.41 -1.95 1.95 -3.75 1.95 -2.11 0 -3.75 -1.25 -11.09 -8.59 -4.77 -4.69 -9.22 -8.59 -10 -8.59 -0.78 0 -5.55 4.22 -10.55 9.38 -9.77 9.92 -11.33 10.78 -14.30 7.81z"/>
  <path d="M321.64 661.88 c-2.50 -2.81 -1.56 -4.53 7.27 -14.06 4.69 -5 8.59 -9.69 8.59 -10.23 0 -0.63 -4.06 -5.23 -8.98 -10.23 -9.14 -9.30 -10.23 -11.17 -7.73 -13.59 2.81 -2.81 4.84 -1.64 15.23 8.67 11.02 10.78 12.42 13.13 10.86 17.81 -0.86 2.50 -13.20 16.48 -18.83 21.33 -2.50 2.11 -4.69 2.19 -6.41 0.31z"/>
  <path d="M376.02 651.33 c-15.23 -15.16 -15.23 -14.22 1.02 -31.56 6.56 -7.03 8.67 -8.83 10.39 -8.83 2.73 0 3.98 1.33 3.98 4.14 0 1.80 -1.72 4.06 -8.59 11.33 -4.69 4.92 -8.59 9.38 -8.59 9.84 0 0.39 4.22 5.08 9.38 10.23 7.19 7.27 9.38 10 9.38 11.56 0 2.11 -2.50 4.45 -4.61 4.45 -0.70 0 -6.25 -5 -12.34 -11.17z"/>
  <path d="M316.56 641.41 c-2.19 -2.03 -2.34 -6.25 -0.31 -8.05 1.80 -1.64 6.72 -1.72 8.28 -0.08 3.52 3.52 1.48 9.06 -3.52 9.53 -1.88 0.16 -3.20 -0.23 -4.45 -1.41z"/>
  <path d="M386.80 640.16 c-2.11 -2.66 -2.11 -5 -0.08 -7.19 3.44 -3.67 10.16 -1.25 10.16 3.59 0 5.16 -6.95 7.58 -10.08 3.59z"/>
  <path d="M348.59 624.84 c-8.20 -7.50 -17.42 -16.64 -18.20 -17.97 -0.39 -0.78 -0.39 -2.03 0.08 -3.28 0.63 -1.72 1.25 -2.03 3.67 -2.03 2.66 0.08 3.83 0.86 11.95 8.59 4.92 4.69 9.38 8.59 9.84 8.59 0.39 0 4.77 -4.22 9.61 -9.38 7.89 -8.44 9.06 -9.38 11.41 -9.38 3.05 0 4.77 2.11 3.98 4.92 -0.31 0.94 -5.31 6.72 -11.25 12.89 -10.08 10.39 -11.02 11.09 -13.75 11.09 -2.42 0 -3.67 -0.70 -7.34 -4.06z"/>
  <path d="M351.56 606.25 c-2.19 -2.19 -2.11 -6.56 0.16 -8.13 4.22 -2.97 9.45 -0.55 9.45 4.38 0 4.69 -6.25 7.11 -9.61 3.75z"/>
  <path d="M671.48 601.17 c-1.09 -1.02 -1.95 -2.27 -1.95 -2.81 0 -0.47 4.45 -5.16 9.84 -10.31 5.39 -5.16 11.88 -12.03 14.45 -15.23 5.08 -6.33 12.42 -16.88 12.42 -17.89 0 -0.31 -1.95 -2.89 -4.38 -5.70 -9.38 -11.09 -11.72 -21.17 -7.11 -30.70 4.22 -8.44 14.69 -15.78 31.80 -21.95 7.73 -2.81 7.03 -1.41 8.59 -19.22 2.19 -26.41 -3.75 -52.42 -17.66 -77.42 -2.34 -4.14 -4.22 -8.20 -4.22 -9.06 0 -2.34 2.50 -4.14 5.70 -4.14 2.50 0 3.20 0.47 5.55 3.75 3.98 5.31 11.64 21.09 14.92 30.55 4.92 14.38 6.80 25.70 6.95 41.88 0 7.73 -0.16 16.95 -0.55 20.55 l-0.55 6.41 2.89 0 c3.59 0 14.14 -2.66 15.31 -3.83 1.25 -1.25 1.64 -18.44 0.63 -28.36 -1.95 -18.83 -5.47 -33.05 -12.27 -49.06 -21.88 -51.95 -78.75 -91.09 -144.06 -99.22 -14.77 -1.80 -39.22 -0.78 -54.30 2.34 -19.45 3.98 -30.55 7.66 -46.88 15.63 -18.98 9.22 -34.69 20.55 -53.28 38.52 -6.02 5.78 -11.56 10.70 -12.50 11.02 -2.42 0.78 -5.63 -0.78 -6.17 -3.05 -0.55 -2.34 -0.08 -4.61 2.58 -11.33 15.39 -38.91 40.31 -74.84 69.38 -99.92 16.80 -14.53 28.13 -22.11 47.34 -31.56 13.91 -6.88 17.03 -11.17 19.77 -27.11 5.86 -34.69 2.81 -71.80 -8.98 -108.75 -2.50 -7.73 -3.52 -10 -4.61 -10 -1.72 0 -32.27 31.02 -45.78 46.48 -25.55 29.22 -51.33 62.11 -66.48 84.77 -22.03 33.05 -33.52 60.55 -39.38 94.14 -1.25 7.19 -1.72 13.98 -2.03 28.91 -0.39 18.59 -0.47 19.61 -2.11 21.33 -2.19 2.50 -6.72 1.95 -10 -1.17 -6.02 -5.63 -17.27 -22.58 -25 -37.73 -14.14 -27.81 -21.88 -55.23 -27.97 -98.83 -0.86 -6.41 -2.19 -13.67 -2.81 -16.02 -3.05 -10.70 -13.28 -26.33 -34.30 -52.50 -22.66 -28.36 -56.41 -66.25 -58.91 -66.25 -2.66 0 -9.30 24.69 -12.27 45.70 -1.80 12.58 -1.80 35.70 0 48.83 6.09 44.92 21.95 80.23 51.56 114.77 22.27 25.94 45.08 45.70 78.44 67.97 9.06 6.09 9.53 6.48 9.53 9.06 0 4.61 -1.48 5.08 -17.19 5.08 -42.50 0 -90.47 -12.73 -129.84 -34.45 -4.84 -2.66 -16.80 -9.92 -26.56 -16.02 -9.84 -6.09 -19.77 -11.88 -22.11 -12.73 -11.64 -4.38 -37.03 0.70 -57.50 11.41 -19.69 10.31 -35.94 27.34 -42.97 45.08 -3.52 8.75 -4.53 9.77 -7.27 7.11 -3.05 -3.13 -7.50 -23.28 -7.50 -33.98 0 -11.09 3.91 -22.03 10.94 -30.86 8.52 -10.70 18.98 -18.98 48.36 -38.52 19.53 -12.89 24.22 -16.33 30.23 -22.34 15.78 -15.86 22.19 -30.55 29.30 -66.80 8.91 -45.78 13.75 -63.05 24.14 -86.80 3.67 -8.44 11.88 -24.61 15.55 -30.47 l3.13 -5.08 -1.88 -1.95 c-5.16 -5.63 -6.41 -10.86 -3.28 -14.45 2.27 -2.66 7.27 -3.28 12.66 -1.64 l3.91 1.25 2.27 -2.97 c5.23 -6.64 12.19 -12.50 16.48 -13.83 5.39 -1.72 7.89 -1.09 9.53 2.34 1.56 3.28 0.86 7.27 -3.28 17.66 -1.48 3.67 -2.73 7.03 -2.73 7.42 0 0.39 3.28 2.81 7.19 5.39 15.94 10.39 36.41 26.56 76.02 60.16 34.84 29.53 42.66 33.98 60.16 33.98 11.88 0 24.38 -4.45 35.08 -12.58 2.97 -2.27 14.38 -11.80 25.39 -21.17 38.44 -33.05 59.61 -49.22 84.30 -64.77 2.97 -1.88 3.98 -2.89 3.59 -3.75 -0.23 -0.70 -1.72 -4.77 -3.20 -8.98 -2.97 -8.36 -3.13 -12.58 -0.55 -15.39 1.64 -1.88 8.67 -2.03 11.95 -0.31 2.27 1.17 13.36 12.58 13.36 13.75 0 0.31 2.97 0.39 6.56 0.16 6.56 -0.47 6.64 -0.47 8.98 1.95 3.59 3.52 3.13 7.66 -1.41 12.81 l-2.34 2.66 4.38 7.42 c5.39 8.98 14.69 28.05 18.83 38.59 7.89 20 13.83 41.80 21.25 78.13 6.64 32.66 9.92 43.36 16.48 53.52 6.64 10.39 14.22 16.88 38.67 33.28 27.34 18.44 37.81 26.80 52.19 41.72 15.16 15.86 25.39 30.39 35.16 50 10.16 20.47 15.78 38.28 19.30 61.02 2.34 15 2.50 42.58 0.47 56.17 -4.45 28.91 -11.02 50 -22.97 74.30 -10 20.23 -23.67 39.53 -29.92 42.11 -3.20 1.33 -7.50 0.39 -9.06 -1.95 -2.03 -3.13 -1.56 -7.11 1.72 -13.44 l2.89 -5.78 -1.88 -1.80 c-6.72 -6.48 -12.81 -11.41 -14.06 -11.41 -0.86 0 -3.28 2.42 -6.33 6.48 -11.02 14.53 -30 31.80 -35 31.80 -0.47 0 -1.72 -0.86 -2.73 -1.95z m85.39 -47.27 c17.19 -33.98 26.33 -72.34 24.84 -104.30 -2.42 -55.70 -28.36 -107.42 -71.95 -143.67 -10.94 -9.06 -10.94 -9.06 -31.72 -23.20 -25.23 -17.11 -32.58 -23.05 -39.30 -31.88 -9.77 -12.81 -12.34 -20.55 -21.56 -64.92 -5.86 -28.20 -8.98 -40.39 -14.45 -56.88 -5.86 -17.66 -14.22 -36.33 -22.81 -51.09 l-3.05 -5.31 -3.75 3.83 -3.67 3.75 2.73 8.20 c9.22 27.58 13.67 58.59 12.73 88.13 -0.78 22.73 -3.36 38.75 -7.66 47.50 -3.05 6.17 -5.70 8.20 -22.11 16.64 -22.11 11.48 -37.73 23.05 -54.77 40.63 -19.06 19.61 -36.64 45 -46.64 67.03 -2.58 5.78 -2.81 5.86 7.27 -2.73 6.64 -5.63 22.27 -16.72 23.52 -16.72 0.39 0 1.88 -0.86 3.20 -1.88 3.05 -2.34 19.06 -10.63 20.47 -10.63 0.55 0 2.50 -0.86 4.38 -1.88 6.64 -3.59 27.81 -9.92 38.20 -11.41 3.20 -0.47 8.05 -1.17 10.63 -1.56 7.89 -1.25 47.89 -0.94 56.56 0.39 33.36 5.31 63.36 17.73 89.45 37.11 36.48 26.95 57.27 61.64 64.14 107.03 1.72 10.86 1.88 40.47 0.39 50.78 -3.13 21.88 -10.47 44.92 -21.17 66.48 -2.19 4.45 -3.28 7.27 -2.42 6.17 0.94 -1.09 4.77 -8.13 8.52 -15.63z m-18.20 12.19 l1.41 -2.58 -5.78 -5.39 c-19.53 -18.20 -23.59 -25.63 -18.98 -34.69 3.67 -7.34 16.95 -13.36 38.83 -17.66 3.75 -0.78 6.95 -1.56 7.11 -1.80 0.16 -0.23 0.55 -2.11 0.86 -4.14 0.70 -4.53 0.63 -4.53 -9.84 -1.88 -12.89 3.28 -15.94 4.22 -24.45 7.42 -18.52 6.95 -26.25 13.83 -26.25 23.28 0 5.08 2.97 10 11.09 18.67 7.42 7.81 22.50 21.41 23.75 21.41 0.47 0 1.48 -1.17 2.27 -2.66z m8.20 -16.33 c0 -0.16 -2.42 -2.66 -5.39 -5.70 -3.59 -3.67 -5.47 -6.25 -5.70 -7.81 -0.86 -6.33 3.36 -11.33 10.86 -12.81 9.45 -1.80 10.55 -2.42 11.64 -6.17 l1.02 -3.44 -4.45 0.47 c-9.45 1.02 -26.09 7.66 -29.53 11.72 -4.22 5 -2.27 8.83 10.63 21.09 l7.97 7.73 1.48 -2.42 c0.78 -1.41 1.48 -2.58 1.48 -2.66z m5.31 -12.66 c0.39 -1.25 1.02 -2.97 1.33 -3.67 0.47 -1.17 0.08 -1.41 -2.58 -1.41 -6.33 0 -7.19 1.80 -3.13 6.02 2.66 2.73 3.13 2.66 4.38 -0.94z m-405.55 -171.41 c-29.92 -20.47 -59.30 -48.05 -79.61 -74.77 -33.36 -43.83 -48.59 -99.38 -42.73 -155.78 1.56 -14.84 4.14 -27.19 9.06 -43.20 l2.89 -9.22 -3.83 -3.83 -3.83 -3.91 -1.88 2.89 c-3.98 6.48 -13.52 26.25 -17.89 37.34 -7.89 19.77 -12.73 37.66 -17.81 65.23 -8.52 46.56 -15.08 62.58 -32.73 80.08 -7.42 7.42 -14.53 12.66 -35.23 26.17 -35 22.81 -47.81 35.70 -51.64 52.11 -1.25 5.39 -1.09 15.23 0.31 19.06 0.63 1.56 0.86 1.41 2.89 -2.11 12.03 -20.78 38.91 -39.30 67.58 -46.56 6.95 -1.72 11.56 -2.34 20.31 -2.73 16.64 -0.70 17.50 -0.39 44.69 16.72 25.55 16.02 40.08 23.44 61.09 31.25 25.63 9.45 55.94 15.63 85.55 17.34 1.33 0.08 -0.94 -1.88 -7.19 -6.09z m53.20 -57.50 c6.56 -40.86 23.28 -75.86 59.06 -123.44 30.86 -41.09 64.77 -79.22 101.09 -113.67 8.67 -8.28 15.63 -15.23 15.47 -15.47 -0.39 -0.31 -7.50 2.89 -18.05 8.20 -11.02 5.55 -34.69 22.11 -55.86 39.14 -4.53 3.59 -18.36 15.23 -30.70 25.86 -32.27 27.50 -37.03 30.86 -50.94 35.78 -5.94 2.03 -6.95 2.19 -19.53 2.11 -12.34 0 -13.75 -0.16 -19.53 -2.11 -11.64 -3.83 -17.73 -8.28 -53.91 -38.91 -39.22 -33.20 -57.42 -47.27 -75.39 -58.05 -9.84 -5.94 -21.72 -11.80 -22.50 -11.09 -0.23 0.31 7.50 8.52 17.11 18.28 42.81 43.28 87.50 98.13 97.34 119.45 3.20 6.88 4.38 11.95 6.88 29.30 2.81 19.61 4.84 30.08 7.97 42.42 7.11 28.13 20.55 57.58 35.31 77.50 l3.59 4.77 0.47 -14.92 c0.31 -9.06 1.17 -18.98 2.11 -25.16z m-148.05 -261.88 l2.11 -5.23 -3.20 3.13 c-4.14 3.98 -5.08 5.78 -3.75 6.64 2.11 1.33 2.81 0.63 4.84 -4.53z m307.19 2.58 c1.33 -0.94 1.25 -1.25 -1.95 -4.69 -1.88 -1.95 -3.52 -3.52 -3.67 -3.36 -0.23 0.23 0.63 3.05 2.50 8.20 0.47 1.25 1.33 1.17 3.13 -0.16z"/>
  <path d="M442.11 599.77 c-5.23 -3.98 -3.20 -11.72 3.36 -12.81 3.52 -0.55 6.56 1.17 7.73 4.22 0.94 2.58 -0.39 6.80 -2.66 8.44 -2.03 1.41 -6.72 1.48 -8.44 0.16z"/>
  <path d="M96.64 587.42 c-0.70 -0.39 -1.88 -1.88 -2.58 -3.13 -1.02 -2.11 -1.09 -3.28 -0.23 -9.30 2.50 -18.52 -1.56 -31.95 -12.27 -40 -5.70 -4.38 -10 -5.55 -18.83 -5.16 -7.19 0.31 -7.50 0.39 -16.88 5.16 -5.23 2.73 -10.55 4.84 -11.72 4.84 -3.05 0 -6.02 -3.20 -6.02 -6.41 0 -2.11 0.86 -3.36 5.31 -7.66 5.55 -5.39 12.11 -9.06 20 -11.33 6.33 -1.88 19.38 -1.33 25.86 1.02 12.97 4.77 23.13 15.55 28.28 30.23 1.95 5.70 2.19 7.19 2.19 17.58 0 9.61 -0.23 12.19 -1.80 16.95 -1.09 3.52 -2.42 6.09 -3.44 6.88 -1.95 1.33 -5.78 1.48 -7.89 0.31z"/>
  <path d="M71.88 586.95 c-0.63 -0.23 -1.95 -1.17 -2.97 -2.11 -1.72 -1.56 -1.80 -1.88 -1.25 -11.41 0.47 -9.45 0.39 -9.84 -1.41 -12.50 -1.64 -2.42 -2.34 -2.73 -5.55 -2.97 -2.97 -0.23 -4.53 0.23 -8.59 2.50 -5.70 3.20 -8.13 3.52 -10.55 1.25 -4.92 -4.61 0.78 -14.30 11.02 -18.75 13.28 -5.78 26.33 0.55 30.55 14.84 1.56 5.23 1.56 9.92 0.08 16.25 -1.56 6.56 -3.83 10.78 -6.64 12.27 -2.42 1.25 -2.81 1.33 -4.69 0.63z"/>
  <path d="M649.61 566.64 c-4.84 -1.25 -8.20 -5.94 -8.20 -11.33 0 -6.41 4.53 -10.78 11.09 -10.78 11.33 0 15.31 13.67 6.02 20.39 -2.03 1.56 -6.48 2.34 -8.91 1.72z"/>
  <path d="M338.67 562.89 c-1.48 -1.41 -1.95 -2.73 -1.95 -5.08 0 -4.38 2.66 -7.03 7.03 -7.03 4.38 0 7.03 2.66 7.03 6.95 0 6.09 -7.81 9.45 -12.11 5.16z"/>
  <path d="M27.03 502.89 c-1.17 -1.17 -2.50 -4.77 -4.22 -11.09 -5.39 -20.55 -8.75 -44.30 -8.75 -61.56 0 -9.53 0.08 -10.08 1.95 -11.88 2.50 -2.50 5.78 -2.58 8.13 -0.08 1.64 1.80 1.88 2.97 2.50 14.30 1.02 18.98 3.28 33.98 8.20 55 1.48 6.33 2.66 11.88 2.66 12.34 0 0.55 -0.86 1.80 -1.95 2.81 -2.42 2.50 -6.09 2.58 -8.52 0.16z"/>
  <path d="M249.45 476.17 c-11.88 -2.58 -21.48 -10.94 -25.63 -22.42 -1.25 -3.44 -2.19 -4.92 -3.13 -4.92 -0.78 0 -3.36 2.50 -5.78 5.47 -7.66 9.45 -18.59 16.80 -29.22 19.61 -5.23 1.41 -16.17 1.41 -21.56 -0.08 -10.70 -2.81 -20.08 -10.08 -24.45 -18.91 -3.44 -6.95 -3.98 -16.33 -1.41 -23.13 2.42 -6.48 7.19 -11.95 13.28 -15.31 4.38 -2.42 5.86 -2.81 11.72 -3.05 4.38 -0.23 8.91 0.08 12.81 0.94 12.19 2.50 14.77 1.48 26.64 -10.78 10.55 -10.94 15.31 -13.59 25.55 -14.30 5.55 -0.31 7.19 -0.16 11.17 1.33 5.31 2.03 10.94 7.27 13.20 12.34 1.33 2.89 1.80 3.28 4.14 3.28 11.72 0 25.39 8.28 30.55 18.52 5 9.77 5.47 22.50 1.02 31.95 -4.69 10 -11.33 15.86 -21.48 18.98 -6.02 1.88 -10.47 1.95 -17.42 0.47z"/>
  <path d="M318.83 420 c-4.53 -2.50 -5.39 -9.30 -1.72 -13.05 1.80 -1.80 2.97 -2.27 5.55 -2.27 4.06 0 5.94 1.02 7.42 3.91 3.98 7.73 -3.75 15.55 -11.25 11.41z"/>
  <path d="M97.97 402.34 c-4.45 -1.80 -6.25 -7.81 -3.83 -12.50 1.56 -3.05 3.36 -3.91 8.05 -3.91 2.89 0 4.14 0.39 5.47 1.80 7.03 7.50 -0.16 18.44 -9.69 14.61z"/>
  <path d="M584.45 371.80 c-7.11 -1.41 -13.52 -8.05 -14.61 -15.23 -0.86 -5.86 0.94 -10.94 5.47 -15.63 6.17 -6.33 13.91 -7.66 21.64 -3.59 7.27 3.75 11.02 12.11 9.22 20.39 -2.11 10 -11.64 16.09 -21.72 14.06z m8.13 -10.08 c2.66 -1.64 5.08 -5.70 5.08 -8.59 0 -4.69 -4.30 -8.59 -9.45 -8.59 -2.58 0 -3.67 0.47 -5.78 2.58 -5 5 -4.06 11.72 1.95 14.77 3.52 1.80 5.08 1.80 8.20 -0.16z"/>
  <path d="M537.81 367.27 c-3.05 -1.33 -5.16 -4.84 -4.69 -7.81 0.63 -4.22 3.20 -6.33 7.50 -6.33 4.77 0 7.42 2.50 7.42 7.11 0 5.08 -5.63 8.98 -10.23 7.03z"/>
  <path d="M359.84 345.86 c-19.84 -21.33 -36.56 -45.23 -49.92 -71.48 -10.47 -20.47 -22.42 -50.70 -22.42 -56.56 0 -1.64 0.55 -3.20 1.41 -3.98 1.95 -1.72 6.64 -1.72 8.20 0.08 0.63 0.70 3.20 6.64 5.63 13.05 19.14 50.63 36.72 82.11 63.59 113.91 6.33 7.42 7.42 10.08 5.39 12.11 -2.27 2.27 -4.38 0.94 -11.88 -7.11z"/>
  <path d="M420.16 353.05 c-2.03 -1.09 -1.80 -4.61 0.94 -15.16 15.31 -58.75 41.72 -106.95 78.67 -143.59 6.02 -5.94 8.36 -7.73 10.39 -8.05 3.67 -0.55 6.25 1.80 6.25 5.55 0 2.42 -1.17 3.91 -10.23 13.44 -5.63 5.86 -13.28 14.38 -17.03 18.83 -26.25 31.48 -47.27 72.19 -59.92 115.78 -3.91 13.59 -5.23 15.47 -9.06 13.20z"/>
  <path d="M777.73 342.97 c-2.81 -1.09 -3.52 -2.66 -5.16 -11.80 -3.75 -21.25 -9.45 -41.25 -16.88 -59.92 -2.73 -6.95 -5.23 -13.83 -5.39 -15.23 -0.55 -3.52 1.02 -5.31 5.23 -5.78 4.45 -0.47 5.08 0.23 9.69 10.70 12.73 28.67 23.67 76.17 18.59 80.63 -1.88 1.64 -4.22 2.19 -6.09 1.41z"/>
  <path d="M685.39 253.13 c-6.95 -0.39 -8.59 -0.78 -13.75 -3.36 -7.11 -3.52 -12.19 -8.75 -15.63 -16.02 -2.34 -4.84 -2.50 -5.86 -2.50 -13.44 0 -7.58 0.16 -8.59 2.50 -13.44 1.41 -3.05 4.14 -6.88 6.56 -9.38 4.06 -4.06 4.14 -4.22 3.91 -8.52 -0.39 -8.44 3.59 -13.20 11.25 -13.20 3.59 0 3.98 -0.23 5.16 -2.58 1.88 -3.91 5.63 -6.02 10.63 -6.02 3.83 0 8.83 1.72 8.83 3.13 0 0.23 0.31 0.86 0.63 1.41 0.55 0.78 1.09 0.78 2.97 -0.23 3.44 -1.80 8.98 -1.48 12.11 0.63 3.20 2.11 6.17 6.41 6.17 8.75 0 1.48 0.70 1.95 3.67 2.66 4.77 1.25 7.73 3.44 9.61 7.11 1.72 3.28 2.11 10 0.78 12.50 -0.55 1.09 -0.23 2.50 1.56 5.86 2.58 5 2.97 9.69 1.25 14.69 -1.41 3.75 -4.84 8.20 -7.58 9.84 -1.48 0.86 -2.42 2.27 -3.05 4.61 -1.02 4.14 -5.47 9.14 -9.14 10.39 -1.72 0.55 -4.77 0.70 -7.73 0.47 -3.83 -0.39 -5.08 -0.23 -5.86 0.70 -0.55 0.70 -2.34 1.88 -3.91 2.73 -3.13 1.56 -4.53 1.64 -18.44 0.70z"/>
  <path d="M109.22 251.95 c-16.25 -3.28 -29.61 -16.64 -30.94 -31.09 -0.23 -3.13 -0.94 -5.63 -2.03 -7.03 -1.33 -1.88 -1.64 -3.36 -1.64 -8.59 0.08 -7.03 0.86 -9.22 6.80 -17.97 5.78 -8.52 7.27 -12.66 7.19 -19.69 -0.16 -6.80 0.16 -7.42 4.06 -7.42 7.73 0 17.19 9.84 17.42 18.20 0.08 1.95 0.31 2.11 3.13 2.11 5 0 11.09 1.48 16.41 3.98 22.81 10.63 30.47 39.77 15.08 57.03 -8.75 9.84 -20.78 13.36 -35.47 10.47z"/>
  <path d="M264.84 182.97 c-8.13 -4.06 -8.36 -16.80 -0.39 -20.16 6.41 -2.66 13.52 -0.47 15.78 4.92 4.30 10.39 -5.55 20.23 -15.39 15.23z"/>
  <path d="M533.75 181.95 c-10 -5 -10.08 -19.38 -0.08 -24.53 2.81 -1.48 9.53 -1.48 12.34 0 10 5.16 9.92 19.69 -0.16 24.53 -4.30 2.11 -7.89 2.11 -12.11 0z"/>
  <path d="M118.36 150.39 c-3.91 -3.83 -2.42 -6.41 13.36 -22.97 12.42 -13.05 33.75 -31.95 43.67 -38.67 5.55 -3.75 11.33 -2.11 11.33 3.20 0 2.66 -2.34 5 -17.27 17.42 -4.92 4.06 -16.95 15.39 -26.72 25.16 -19.45 19.53 -20.31 20 -24.38 15.86z"/>
  <path d="M661.48 146.41 c-0.31 -0.31 -0.55 -1.25 -0.55 -2.03 0 -1.02 -0.63 -1.41 -2.27 -1.41 -2.89 0 -4.61 -1.95 -3.44 -3.83 0.70 -1.17 0.55 -1.72 -0.78 -3.05 l-1.64 -1.72 2.19 -2.27 c1.48 -1.56 2.03 -2.81 1.72 -3.67 -0.70 -1.88 0.94 -3.44 3.52 -3.44 1.41 0 2.50 -0.55 3.05 -1.56 1.09 -2.03 4.38 -2.03 5.47 0 0.63 1.17 1.33 1.48 2.66 1.09 2.50 -0.63 4.61 1.64 3.98 4.22 -0.31 1.41 -0.08 2.19 1.17 3.05 1.88 1.33 2.03 4.30 0.31 5.78 -0.70 0.55 -1.02 1.64 -0.78 2.73 0.70 2.66 -3.52 5.39 -9.38 6.09 -2.58 0.31 -4.92 0.23 -5.23 0z"/>
  <path d="M391.17 145.31 c-7.66 -1.95 -16.25 -8.36 -20.70 -15.47 -3.91 -6.17 -5.08 -11.02 -4.69 -19.69 0.23 -6.88 0.55 -8.13 3.20 -13.59 2.34 -4.69 3.98 -6.80 7.81 -10 7.58 -6.25 11.72 -7.81 22.58 -8.28 l9.14 -0.39 5.86 2.81 c7.73 3.67 12.97 8.91 16.64 16.56 8.28 17.58 0.63 37.89 -17.50 46.25 -3.75 1.80 -5.78 2.19 -11.95 2.34 -4.06 0.08 -8.75 -0.16 -10.39 -0.55z m18.59 -10.08 c6.33 -3.13 12.19 -9.38 14.45 -15.55 4.38 -11.48 -2.11 -25.39 -14.69 -31.56 -5.63 -2.73 -13.91 -2.58 -19.92 0.47 -8.91 4.53 -15.63 14.53 -15.63 23.13 0 13.28 15 27.42 27.89 26.17 1.64 -0.16 5.23 -1.33 7.89 -2.66z"/>
  <path d="M626.88 103.13 c-4.30 -1.72 -5.70 -8.52 -2.42 -11.56 0.94 -0.86 3.13 -1.88 4.84 -2.11 2.66 -0.47 3.44 -0.23 5.31 1.48 1.72 1.56 2.11 2.66 2.11 5.47 0 2.89 -0.39 3.75 -2.42 5.47 -2.42 2.11 -4.53 2.42 -7.42 1.25z"/>
  <path d="M329.69 76.02 c-1.80 -0.70 -4.69 -3.52 -5.94 -5.86 -2.34 -4.53 -0.47 -11.33 3.91 -13.98 3.44 -2.11 9.77 -2.03 12.50 0.16 6.25 4.92 5.70 15.55 -1.02 19.06 -2.27 1.17 -7.11 1.48 -9.45 0.63z"/>
  <path d="M461.02 68.59 c-0.39 -1.02 -1.33 -4.14 -2.03 -7.03 -2.73 -10.70 -8.44 -17.03 -18.13 -20.16 -8.59 -2.73 -9.61 -3.20 -9.61 -4.69 0 -1.95 1.33 -2.81 6.25 -3.91 12.58 -2.89 18.44 -8.83 21.80 -22.27 1.80 -6.95 2.03 -7.42 4.38 -7.42 1.56 0 2.03 0.55 2.73 3.13 0.39 1.72 1.17 4.61 1.64 6.41 2.89 11.17 10 17.66 22.03 20.16 7.89 1.64 7.58 6.09 -0.47 7.81 -10.39 2.19 -18.05 8.75 -20.86 17.81 -0.86 2.89 -1.95 6.72 -2.34 8.59 -0.70 2.73 -1.17 3.28 -2.81 3.28 -1.25 0 -2.11 -0.63 -2.58 -1.72z"/>
  <path d="M368.36 32.81 c-3.28 -1.33 -5.47 -4.61 -5.47 -8.36 0 -9.92 14.61 -11.09 16.48 -1.33 0.70 3.67 -0.55 6.64 -3.59 8.75 -2.66 1.80 -4.77 2.11 -7.42 0.94z"/>
 </g>
 <g fill="#f8680c">
  <path d="M497.81 670.55 c0.23 -2.73 0 -3.13 -3.67 -5.55 -4.84 -3.20 -11.02 -9.77 -14.06 -14.92 -1.33 -2.19 -2.81 -3.98 -3.44 -3.98 -0.63 0 -0.86 -0.47 -0.47 -1.33 2.03 -5.23 6.17 -18.98 7.81 -26.48 5.16 -22.89 6.95 -50 5.08 -74.22 -1.88 -23.05 -2.58 -24.53 -17.42 -36.33 -12.03 -9.61 -26.64 -23.67 -33.52 -32.34 -13.98 -17.66 -23.91 -37.66 -27.97 -56.56 -2.03 -9.38 -3.36 -22.89 -2.73 -27.89 0.47 -3.67 0.70 -4.22 2.19 -4.22 1.48 0 2.58 1.72 6.72 10 10.63 21.41 21.48 37.11 35.23 51.02 30.63 30.86 68.05 47.27 113.28 49.61 9.22 0.47 10.86 0.78 13.28 2.34 1.56 1.02 5.78 2.97 9.38 4.30 7.97 2.97 19.38 3.91 28.44 2.27 12.27 -2.19 26.09 -12.03 31.41 -22.34 1.88 -3.52 2.97 -4.69 6.17 -6.33 16.25 -8.36 31.41 -21.09 44.30 -37.34 7.73 -9.77 11.09 -8.52 7.66 2.89 -2.27 7.42 -6.02 14.92 -12.34 24.45 -6.33 9.53 -23.28 26.88 -32.97 33.91 -3.67 2.58 -8.05 5.78 -9.84 7.11 -1.80 1.25 -3.52 2.34 -3.98 2.34 -0.39 0 -2.73 1.09 -5.16 2.42 -8.44 4.53 -21.33 9.45 -31.02 11.80 -5.39 1.33 -10.47 2.66 -11.33 3.05 -1.48 0.55 -4.84 0.94 -19.69 2.19 -8.20 0.70 -9.84 1.64 -11.33 6.48 -2.66 9.06 7.89 28.36 22.11 40.39 7.97 6.72 15.63 11.33 25.31 15.31 4.53 1.80 8.98 3.52 9.77 3.75 2.03 0.55 1.95 2.42 -0.39 7.42 -4.06 8.67 -10.70 17.73 -19.45 26.33 -15.86 15.78 -36.64 27.50 -58.44 33.13 -12.97 3.36 -20.31 4.14 -31.95 3.52 -11.17 -0.63 -12.03 -0.31 -13.98 4.45 -1.41 3.36 -3.28 2.97 -2.97 -0.63z"/>
  <path d="M732.03 592.19 c0 -1.09 2.42 -5.78 7.58 -14.77 16.02 -27.81 26.09 -55.47 30 -82.89 1.41 -9.92 1.17 -36.09 -0.39 -46.48 -6.95 -45.16 -27.73 -79.77 -64.14 -106.64 -26.09 -19.38 -56.09 -31.80 -89.45 -37.11 -8.59 -1.33 -44.06 -1.64 -51.88 -0.39 -2.58 0.39 -7.42 1.09 -10.63 1.56 -10.39 1.48 -31.56 7.81 -38.20 11.41 -1.88 1.02 -3.83 1.88 -4.38 1.88 -1.41 0 -17.42 8.28 -20.47 10.63 -1.33 1.02 -2.81 1.88 -3.20 1.88 -1.25 0 -16.72 10.94 -23.59 16.72 -3.67 3.05 -9.69 8.52 -13.44 12.11 -3.83 3.59 -6.88 6.41 -6.88 6.17 0 -1.25 6.17 -15.55 10.39 -24.06 18.13 -36.88 47.27 -70.94 77.97 -91.33 5 -3.36 14.69 -8.98 21.48 -12.50 6.88 -3.52 14.06 -7.58 16.09 -9.06 4.69 -3.44 7.97 -10.08 10 -20 7.34 -36.33 3.83 -80.55 -9.69 -120.39 l-3.36 -9.84 4.77 -4.77 c2.89 -2.81 5.47 -4.77 6.48 -4.77 1.80 0 5.47 5.70 12.50 19.92 13.52 26.95 20.55 49.06 29.92 94.14 9.22 44.38 11.80 52.11 21.56 64.92 6.72 8.83 14.06 14.77 39.30 31.88 20.78 14.14 20.78 14.14 31.72 23.20 56.17 46.64 81.88 117.50 68.75 188.98 -4.06 21.64 -10.86 42.11 -20.78 62.19 -9.14 18.36 -22.89 38.20 -26.56 38.20 -0.78 0 -1.48 -0.39 -1.48 -0.78z"/>
  <path d="M403.36 572.50 c-0.39 -0.55 -1.41 -3.67 -2.19 -6.88 -3.59 -15.16 -10.63 -22.50 -24.45 -25.78 -2.27 -0.55 -4.84 -1.56 -5.86 -2.34 -1.56 -1.33 -1.56 -1.56 -0.55 -2.66 0.63 -0.63 3.98 -2.03 7.50 -3.05 13.67 -3.91 20.08 -10.70 22.97 -24.45 1.33 -5.94 2.73 -8.28 4.92 -7.97 1.41 0.16 2.03 1.25 3.44 6.80 4.14 15.86 9.53 21.09 27.19 26.41 4.06 1.25 4.69 1.64 4.69 3.28 0 1.95 0.08 1.88 -9.38 4.77 -8.91 2.73 -15.55 7.81 -18.67 14.30 -1.09 2.27 -2.81 7.27 -3.75 11.09 -1.48 5.86 -2.11 7.11 -3.44 7.27 -0.86 0.16 -1.95 -0.23 -2.42 -0.78z"/>
  <path d="M471.41 409.84 c-2.27 -2.27 -2.66 -3.20 -2.66 -6.17 0 -10.94 15.94 -12.03 17.66 -1.17 0.94 5.47 -3.13 10 -8.91 10 -2.89 0 -3.91 -0.47 -6.09 -2.66z"/>
  <path d="M650.47 407.66 c-0.23 -0.55 -1.09 -3.44 -1.95 -6.48 -2.81 -9.61 -6.02 -12.89 -15.86 -16.25 -3.75 -1.33 -4.92 -2.11 -4.92 -3.28 0 -1.17 1.25 -1.95 5.86 -3.52 3.20 -1.09 6.95 -2.73 8.36 -3.75 2.89 -2.03 6.09 -8.13 7.27 -13.98 1.72 -7.89 4.30 -7.34 6.64 1.48 2.50 9.61 6.56 13.83 15.94 16.56 8.13 2.34 7.97 4.14 -0.55 7.19 -10.16 3.59 -13.05 6.64 -15.39 15.78 -0.70 2.89 -1.64 5.63 -2.11 6.17 -1.02 1.33 -2.89 1.33 -3.28 0.08z"/>
  <path d="M341.80 373.36 c-25.39 -2.11 -52.97 -8.13 -75.86 -16.56 -21.02 -7.81 -35.55 -15.23 -61.09 -31.25 -26.64 -16.72 -28.44 -17.42 -42.34 -16.64 -29.14 1.56 -61.95 18.36 -79.61 40.63 -2.11 2.58 -5.55 7.89 -7.73 11.64 l-3.98 6.95 -0.78 -3.05 c-1.41 -5.31 -2.42 -13.05 -2.42 -18.59 0.08 -21.41 12.11 -35.63 52.73 -62.11 20.70 -13.52 27.81 -18.75 35.23 -26.17 17.66 -17.50 24.22 -33.52 32.73 -80.08 5.08 -27.58 9.92 -45.47 17.81 -65.23 7.50 -18.91 19.38 -41.80 21.64 -41.80 0.70 0 3.59 2.42 6.48 5.31 l5.23 5.31 -2.34 6.95 c-16.09 47.27 -15.94 94.14 0.47 141.95 6.25 18.20 18.83 41.41 31.41 57.97 21.17 27.89 50.16 54.77 82.81 76.88 6.48 4.45 11.88 8.20 11.88 8.44 0 0.47 -13.44 0.16 -22.27 -0.55z"/>
  <path d="M387.81 340.86 c-14.14 -21.48 -25.31 -46.88 -31.80 -72.50 -3.13 -12.34 -5.16 -22.81 -7.97 -42.42 -2.50 -17.34 -3.67 -22.42 -6.88 -29.30 -10 -21.56 -53.44 -74.77 -98.98 -121.25 l-19.14 -19.53 6.41 -0.23 c5.94 -0.23 6.72 0 11.72 2.50 21.02 10.63 41.95 26.09 88.13 65.23 36.17 30.63 42.34 35.08 53.91 38.91 5.55 1.88 7.42 2.11 17.19 2.11 10 0 11.48 -0.16 17.19 -2.19 13.83 -4.84 18.67 -8.20 50.94 -35.70 49.30 -42.19 71.56 -58.20 97.89 -70.47 3.20 -1.48 6.56 -2.89 7.42 -3.13 0.86 -0.16 2.19 -0.63 2.97 -0.94 1.09 -0.47 1.33 -0.16 1.33 1.72 0 2.11 -1.48 3.52 -14.77 13.83 -20 15.47 -40.08 32.34 -60.23 50.55 -52.42 47.19 -76.80 69.92 -83.59 77.73 -19.22 22.27 -29.77 45.39 -33.75 74.14 -1.25 9.22 -1.25 30.08 0.08 39.45 1.17 9.06 5 26.02 6.64 30.08 1.41 3.20 1.64 8.20 0.55 8.20 -0.47 0 -2.81 -3.05 -5.23 -6.80z"/>
  <path d="M393.52 139.84 c-8.05 -2.03 -16.25 -8.91 -19.77 -16.64 -1.88 -4.14 -2.19 -5.86 -2.19 -11.48 -0.08 -5.55 0.31 -7.34 2.03 -11.09 2.73 -5.94 8.13 -11.56 13.67 -14.38 4.14 -2.11 5.23 -2.27 12.73 -2.27 6.95 0 8.75 0.23 11.88 1.80 5.47 2.73 10.23 7.34 13.13 12.81 2.34 4.30 2.73 5.78 2.97 11.95 0.39 8.98 -1.41 14.14 -6.95 20.31 -7.19 7.81 -17.97 11.33 -27.50 8.98z"/>
  <path d="M245.47 53.59 l-5 -2.50 3.59 -4.38 c1.95 -2.42 5 -5.63 6.88 -7.19 3.44 -2.97 6.88 -3.75 6.88 -1.56 0 1.48 -6.17 17.34 -6.88 17.81 -0.31 0.16 -2.73 -0.78 -5.47 -2.19z"/>
  <path d="M554.30 53.28 c-5.16 -12.58 -5.55 -16.56 -1.72 -16.56 1.64 0 12.27 10.39 12.27 12.03 0 0.47 -2.27 2.03 -5 3.36 -4.53 2.27 -5.08 2.34 -5.55 1.17z"/>
 </g>
 <g fill="#f64f06">
  <path d="M295.70 770.23 c-9.38 -0.78 -23.20 -3.44 -26.72 -5.16 -2.66 -1.25 -3.44 -3.52 -1.56 -4.69 0.47 -0.31 10.08 -0.63 21.25 -0.70 32.03 -0.31 51.41 -3.20 75.94 -11.56 49.61 -16.72 88.13 -50.55 107.58 -94.22 4.38 -9.69 4.69 -10.47 4.45 -11.17 -0.08 -0.39 0.23 -0.47 0.63 -0.23 0.39 0.31 0.86 0.08 1.02 -0.39 0.16 -0.47 1.72 1.48 3.36 4.38 3.83 6.48 10.31 13.28 16.17 17.03 2.42 1.56 4.69 3.28 5 3.75 0.31 0.55 0.23 0.70 -0.31 0.39 -0.70 -0.47 -1.72 1.25 -2.19 3.91 -0.23 1.48 -9.61 15.16 -14.61 21.41 -6.25 7.73 -18.67 20.47 -27.89 28.44 -12.42 10.78 -33.83 24.14 -48.20 30.08 -2.97 1.25 -6.64 2.73 -8.13 3.44 -13.59 6.09 -40.16 12.58 -63.20 15.39 -7.66 0.94 -31.17 0.86 -42.58 -0.08z"/>
  <path d="M238.44 617.89 c-17.97 -1.33 -34.69 -7.97 -47.81 -18.91 -5.23 -4.30 -9.22 -10.23 -8.36 -12.50 0.23 -0.63 3.20 -3.05 6.56 -5.31 22.42 -15 35.39 -29.77 35.39 -40.23 0 -1.80 -0.70 -3.44 -2.19 -5.08 l-2.27 -2.50 -12.81 -1.02 c-7.03 -0.63 -16.17 -1.64 -20.23 -2.27 -28.52 -4.69 -55.23 -16.56 -80 -35.39 -9.61 -7.27 -29.45 -26.95 -36.56 -36.17 -17.50 -22.66 -31.09 -49.45 -37.34 -73.67 -4.53 -17.34 -5 -21.88 -5 -43.83 0 -21.64 0.63 -27.58 4.61 -43.36 3.91 -15.39 14.14 -41.09 18.13 -45.47 1.09 -1.25 4.14 -2.03 4.14 -1.02 0 0.16 -1.56 5.23 -3.44 11.17 -4.53 14.06 -7.03 24.14 -9.22 36.56 -1.41 8.44 -1.72 13.05 -1.72 28.44 0 15.78 0.23 19.77 1.80 28.52 5 28.20 15.70 52.81 32.89 75.78 7.42 9.92 24.69 27.27 34.53 34.61 41.02 30.70 83.36 40.23 138.91 31.33 51.17 -8.28 94.77 -33.28 122.19 -70.23 7.11 -9.53 11.17 -16.17 18.28 -30.31 4.84 -9.53 7.03 -12.27 8.59 -10.70 0.31 0.31 0.55 5 0.47 10.39 -0.23 26.88 -11.17 55.08 -30.70 79.14 -9.69 12.03 -31.02 31.17 -42.11 37.81 -9.69 5.78 -13.28 9.30 -14.92 14.45 -0.47 1.48 -1.88 10.47 -3.20 19.92 -4.22 30.23 -6.33 44.45 -7.19 47.89 -1.95 7.89 -19.45 17.50 -38.52 21.25 -8.75 1.64 -10.16 1.72 -22.89 0.70z"/>
  <path d="M142.42 576.95 c-4.45 -1.95 -6.41 -8.83 -3.59 -12.89 2.19 -3.13 3.52 -3.83 7.50 -3.91 4.61 0 6.41 0.86 7.97 3.91 2.50 4.84 0.63 11.02 -3.91 12.97 -3.28 1.33 -4.77 1.33 -7.97 -0.08z"/>
  <path d="M153.91 380.55 c-6.48 -2.11 -11.09 -7.19 -12.11 -13.36 -1.56 -8.98 6.41 -17.97 16.02 -17.97 6.25 0 12.73 4.22 14.77 9.61 1.48 3.83 1.02 10.78 -0.94 14.22 -3.36 5.94 -11.64 9.53 -17.73 7.50z"/>
  <path d="M574.84 57.34 c-0.16 -1.48 0 -2.97 0.31 -3.13 0.39 -0.23 0.47 -0.70 0.23 -1.09 -0.16 -0.31 0.63 -1.02 1.95 -1.56 4.45 -1.88 5.23 1.17 1.48 5.70 -1.33 1.56 -2.66 2.89 -3.05 2.89 -0.31 0 -0.78 -1.25 -0.94 -2.81z"/>
  <path d="M228.52 58.59 c-0.23 -0.39 -1.17 -0.78 -1.95 -0.78 -1.56 0 -3.91 -2.73 -3.91 -4.45 0 -1.48 3.67 -1.25 9.22 0.70 4.84 1.72 6.41 3.67 3.13 3.83 -1.02 0.08 -2.03 0.08 -2.34 0 -0.39 0 -0.63 0.31 -0.63 0.70 0 0.47 -0.70 0.78 -1.48 0.78 -0.86 0 -1.80 -0.31 -2.03 -0.78z"/>
 </g>
 <g fill="#ed4415">
  <path d="M395.23 351.02 c-1.88 -2.50 -4.22 -6.72 -5.08 -9.38 -2.19 -6.09 -5.39 -20.31 -6.64 -29.92 -1.33 -9.38 -1.33 -34.92 -0.08 -44.14 4.06 -28.83 14.53 -51.88 33.75 -74.14 6.80 -7.81 31.17 -30.55 83.59 -77.73 20.16 -18.20 40.23 -35.08 60.16 -50.55 8.13 -6.33 14.61 -11.72 14.45 -12.03 -0.55 -0.86 1.25 -1.41 2.97 -0.94 1.33 0.31 1.33 0.47 0.08 1.80 -0.70 0.78 -1.09 2.11 -0.86 2.97 0.31 1.25 -2.89 4.69 -15.39 16.56 -57.97 55.16 -116.02 127.03 -138.36 171.64 -16.25 32.42 -22.81 58.20 -23.59 92.58 -0.23 9.77 -0.70 17.73 -1.02 17.73 -0.31 0 -2.11 -2.03 -3.98 -4.45z"/>
 </g>
</svg>